<mxfile host="65bd71144e">
    <diagram id="vcXMvCmIO5B1YifTSENU" name="Page-1">
        <mxGraphModel dx="3790" dy="468" grid="1" gridSize="10" guides="1" tooltips="1" connect="1" arrows="1" fold="1" page="1" pageScale="1" pageWidth="850" pageHeight="1100" math="0" shadow="0">
            <root>
                <mxCell id="0"/>
                <mxCell id="1" parent="0"/>
                <mxCell id="6" value="FamilyGroup&lt;div&gt;&lt;br&gt;&lt;/div&gt;" style="swimlane;fontStyle=1;align=center;verticalAlign=top;childLayout=stackLayout;horizontal=1;startSize=26;horizontalStack=0;resizeParent=1;resizeParentMax=0;resizeLast=0;collapsible=1;marginBottom=0;whiteSpace=wrap;html=1;" parent="1" vertex="1">
                    <mxGeometry x="-15" y="154" width="160" height="34" as="geometry"/>
                </mxCell>
                <mxCell id="8" value="" style="line;strokeWidth=1;fillColor=none;align=left;verticalAlign=middle;spacingTop=-1;spacingLeft=3;spacingRight=3;rotatable=0;labelPosition=right;points=[];portConstraint=eastwest;strokeColor=inherit;" parent="6" vertex="1">
                    <mxGeometry y="26" width="160" height="8" as="geometry"/>
                </mxCell>
                <mxCell id="16" value="MedicalRecord" style="swimlane;fontStyle=1;align=center;verticalAlign=top;childLayout=stackLayout;horizontal=1;startSize=26;horizontalStack=0;resizeParent=1;resizeParentMax=0;resizeLast=0;collapsible=1;marginBottom=0;whiteSpace=wrap;html=1;" parent="1" vertex="1">
                    <mxGeometry x="645" y="630" width="160" height="34" as="geometry"/>
                </mxCell>
                <mxCell id="18" value="" style="line;strokeWidth=1;fillColor=none;align=left;verticalAlign=middle;spacingTop=-1;spacingLeft=3;spacingRight=3;rotatable=0;labelPosition=right;points=[];portConstraint=eastwest;strokeColor=inherit;" parent="16" vertex="1">
                    <mxGeometry y="26" width="160" height="8" as="geometry"/>
                </mxCell>
                <mxCell id="20" value="DisasterVictim" style="swimlane;fontStyle=1;align=center;verticalAlign=top;childLayout=stackLayout;horizontal=1;startSize=26;horizontalStack=0;resizeParent=1;resizeParentMax=0;resizeLast=0;collapsible=1;marginBottom=0;whiteSpace=wrap;html=1;" parent="1" vertex="1">
                    <mxGeometry x="235" y="440" width="160" height="34" as="geometry"/>
                </mxCell>
                <mxCell id="22" value="" style="line;strokeWidth=1;fillColor=none;align=left;verticalAlign=middle;spacingTop=-1;spacingLeft=3;spacingRight=3;rotatable=0;labelPosition=right;points=[];portConstraint=eastwest;strokeColor=inherit;" parent="20" vertex="1">
                    <mxGeometry y="26" width="160" height="8" as="geometry"/>
                </mxCell>
                <mxCell id="24" value="&lt;div&gt;Inquiry&lt;/div&gt;" style="swimlane;fontStyle=1;align=center;verticalAlign=top;childLayout=stackLayout;horizontal=1;startSize=26;horizontalStack=0;resizeParent=1;resizeParentMax=0;resizeLast=0;collapsible=1;marginBottom=0;whiteSpace=wrap;html=1;" parent="1" vertex="1">
                    <mxGeometry x="565" y="170" width="160" height="34" as="geometry"/>
                </mxCell>
                <mxCell id="26" value="" style="line;strokeWidth=1;fillColor=none;align=left;verticalAlign=middle;spacingTop=-1;spacingLeft=3;spacingRight=3;rotatable=0;labelPosition=right;points=[];portConstraint=eastwest;strokeColor=inherit;" parent="24" vertex="1">
                    <mxGeometry y="26" width="160" height="8" as="geometry"/>
                </mxCell>
                <mxCell id="32" value="Location&lt;div&gt;&lt;br&gt;&lt;/div&gt;" style="swimlane;fontStyle=1;align=center;verticalAlign=top;childLayout=stackLayout;horizontal=1;startSize=26;horizontalStack=0;resizeParent=1;resizeParentMax=0;resizeLast=0;collapsible=1;marginBottom=0;whiteSpace=wrap;html=1;" parent="1" vertex="1">
                    <mxGeometry x="565" y="330" width="160" height="34" as="geometry">
                        <mxRectangle x="390" y="340" width="90" height="40" as="alternateBounds"/>
                    </mxGeometry>
                </mxCell>
                <mxCell id="34" value="" style="line;strokeWidth=1;fillColor=none;align=left;verticalAlign=middle;spacingTop=-1;spacingLeft=3;spacingRight=3;rotatable=0;labelPosition=right;points=[];portConstraint=eastwest;strokeColor=inherit;" parent="32" vertex="1">
                    <mxGeometry y="26" width="160" height="8" as="geometry"/>
                </mxCell>
                <mxCell id="62" value="" style="endArrow=block;endFill=0;endSize=12;html=1;exitX=0.5;exitY=0;exitDx=0;exitDy=0;entryX=0.554;entryY=0.536;entryDx=0;entryDy=0;entryPerimeter=0;" parent="1" source="20" target="138" edge="1">
                    <mxGeometry width="160" relative="1" as="geometry">
                        <mxPoint x="225" y="560" as="sourcePoint"/>
                        <mxPoint x="313.82352941176396" y="220" as="targetPoint"/>
                    </mxGeometry>
                </mxCell>
                <mxCell id="64" value="&amp;lt;&amp;lt;uses&amp;gt;&amp;gt;" style="endArrow=open;endSize=12;dashed=1;html=1;exitX=0;exitY=0.5;exitDx=0;exitDy=0;entryX=1;entryY=0.25;entryDx=0;entryDy=0;" parent="1" target="136" edge="1">
                    <mxGeometry width="160" relative="1" as="geometry">
                        <mxPoint x="564.9999999999995" y="179" as="sourcePoint"/>
                        <mxPoint x="404.99999999999955" y="122.5" as="targetPoint"/>
                    </mxGeometry>
                </mxCell>
                <mxCell id="65" value="&amp;lt;&amp;lt;uses&amp;gt;&amp;gt;" style="endArrow=open;endSize=12;dashed=1;html=1;exitX=0.5;exitY=1;exitDx=0;exitDy=0;entryX=0.5;entryY=0;entryDx=0;entryDy=0;" parent="1" source="24" target="32" edge="1">
                    <mxGeometry width="160" relative="1" as="geometry">
                        <mxPoint x="643.7199999999993" y="225.298" as="sourcePoint"/>
                        <mxPoint x="430" y="183" as="targetPoint"/>
                    </mxGeometry>
                </mxCell>
                <mxCell id="66" value="0..*" style="text;html=1;align=center;verticalAlign=middle;resizable=0;points=[];autosize=1;strokeColor=none;fillColor=none;" parent="1" vertex="1">
                    <mxGeometry x="395" y="154" width="40" height="30" as="geometry"/>
                </mxCell>
                <mxCell id="67" value="1" style="text;html=1;align=center;verticalAlign=middle;resizable=0;points=[];autosize=1;strokeColor=none;fillColor=none;" parent="1" vertex="1">
                    <mxGeometry x="535" y="154" width="30" height="30" as="geometry"/>
                </mxCell>
                <mxCell id="70" value="" style="endArrow=block;endFill=0;endSize=12;html=1;exitX=0.5;exitY=0;exitDx=0;exitDy=0;entryX=0;entryY=1;entryDx=0;entryDy=0;" parent="1" source="149" target="153" edge="1">
                    <mxGeometry width="160" relative="1" as="geometry">
                        <mxPoint x="47.499999999999545" y="680" as="sourcePoint"/>
                        <mxPoint x="185.00000000000045" y="630" as="targetPoint"/>
                    </mxGeometry>
                </mxCell>
                <mxCell id="71" value="" style="endArrow=block;endFill=0;endSize=12;html=1;exitX=0.5;exitY=0;exitDx=0;exitDy=0;entryX=0.5;entryY=1;entryDx=0;entryDy=0;" parent="1" source="145" target="153" edge="1">
                    <mxGeometry width="160" relative="1" as="geometry">
                        <mxPoint x="289.99999999999955" y="680" as="sourcePoint"/>
                        <mxPoint x="265.00000000000045" y="630" as="targetPoint"/>
                    </mxGeometry>
                </mxCell>
                <mxCell id="72" value="" style="endArrow=block;endFill=0;endSize=12;html=1;exitX=0.5;exitY=0;exitDx=0;exitDy=0;entryX=1;entryY=1;entryDx=0;entryDy=0;" parent="1" source="140" target="153" edge="1">
                    <mxGeometry width="160" relative="1" as="geometry">
                        <mxPoint x="519.9999999999995" y="680" as="sourcePoint"/>
                        <mxPoint x="305.00000000000045" y="598.5000000000002" as="targetPoint"/>
                    </mxGeometry>
                </mxCell>
                <mxCell id="73" value="" style="endArrow=diamondThin;endFill=1;endSize=24;html=1;entryX=0.25;entryY=1;entryDx=0;entryDy=0;exitX=0.438;exitY=0;exitDx=0;exitDy=0;exitPerimeter=0;" parent="1" source="153" target="20" edge="1">
                    <mxGeometry width="160" relative="1" as="geometry">
                        <mxPoint x="305.00000000000045" y="570" as="sourcePoint"/>
                        <mxPoint x="284.27999999999975" y="440.31600000000003" as="targetPoint"/>
                    </mxGeometry>
                </mxCell>
                <mxCell id="74" value="" style="endArrow=diamondThin;endFill=1;endSize=24;html=1;exitX=1;exitY=0;exitDx=0;exitDy=0;entryX=0.188;entryY=1.75;entryDx=0;entryDy=0;entryPerimeter=0;" parent="1" source="153" target="34" edge="1">
                    <mxGeometry width="160" relative="1" as="geometry">
                        <mxPoint x="305.00000000000045" y="601.5" as="sourcePoint"/>
                        <mxPoint x="585" y="370" as="targetPoint"/>
                        <Array as="points">
                            <mxPoint x="595" y="540"/>
                        </Array>
                    </mxGeometry>
                </mxCell>
                <mxCell id="76" value="" style="endArrow=diamondThin;endFill=0;endSize=24;html=1;exitX=1;exitY=0;exitDx=0;exitDy=0;entryX=0;entryY=1;entryDx=0;entryDy=0;" parent="1" source="20" target="32" edge="1">
                    <mxGeometry width="160" relative="1" as="geometry">
                        <mxPoint x="414.99999999999955" y="424" as="sourcePoint"/>
                        <mxPoint x="564.9999999999995" y="369" as="targetPoint"/>
                    </mxGeometry>
                </mxCell>
                <mxCell id="77" value="" style="endArrow=diamondThin;endFill=0;endSize=24;html=1;exitX=0;exitY=0;exitDx=0;exitDy=0;entryX=0.983;entryY=1.036;entryDx=0;entryDy=0;entryPerimeter=0;" parent="1" source="16" target="22" edge="1">
                    <mxGeometry width="160" relative="1" as="geometry">
                        <mxPoint x="215" y="530" as="sourcePoint"/>
                        <mxPoint x="414.99999999999955" y="423" as="targetPoint"/>
                        <Array as="points">
                            <mxPoint x="640" y="474"/>
                        </Array>
                    </mxGeometry>
                </mxCell>
                <mxCell id="78" value="&amp;lt;&amp;lt;uses&amp;gt;&amp;gt;" style="endArrow=open;startArrow=none;endFill=0;startFill=0;endSize=8;html=1;verticalAlign=bottom;dashed=1;labelBackgroundColor=none;exitX=0.5;exitY=0;exitDx=0;exitDy=0;" parent="1" source="16" edge="1">
                    <mxGeometry width="160" relative="1" as="geometry">
                        <mxPoint x="215" y="530" as="sourcePoint"/>
                        <mxPoint x="710" y="370" as="targetPoint"/>
                    </mxGeometry>
                </mxCell>
                <mxCell id="79" value="" style="endArrow=none;startArrow=none;endFill=0;startFill=0;endSize=8;html=1;verticalAlign=bottom;labelBackgroundColor=none;strokeWidth=1;entryX=0;entryY=0.5;entryDx=0;entryDy=0;exitX=1;exitY=0.5;exitDx=0;exitDy=0;" parent="1" source="6" target="136" edge="1">
                    <mxGeometry width="160" relative="1" as="geometry">
                        <mxPoint x="55" y="137" as="sourcePoint"/>
                        <mxPoint x="204.99999999999955" y="155" as="targetPoint"/>
                    </mxGeometry>
                </mxCell>
                <mxCell id="81" value="&amp;lt;&amp;lt;uses&amp;gt;&amp;gt;" style="endArrow=open;endSize=12;dashed=1;html=1;exitX=0.75;exitY=1;exitDx=0;exitDy=0;entryX=0;entryY=0;entryDx=0;entryDy=0;" parent="1" source="157" target="153" edge="1">
                    <mxGeometry x="-0.359" y="-3" width="160" relative="1" as="geometry">
                        <mxPoint x="700.8400000000001" y="391.43000000000006" as="sourcePoint"/>
                        <mxPoint x="765" y="346" as="targetPoint"/>
                        <Array as="points"/>
                        <mxPoint as="offset"/>
                    </mxGeometry>
                </mxCell>
                <mxCell id="90" value="&amp;lt;&amp;lt;uses&amp;gt;&amp;gt;" style="endArrow=open;startArrow=none;endFill=0;startFill=0;endSize=8;html=1;verticalAlign=bottom;dashed=1;labelBackgroundColor=none;exitX=0.054;exitY=0.081;exitDx=0;exitDy=0;exitPerimeter=0;entryX=0;entryY=0;entryDx=0;entryDy=0;" parent="1" source="189" target="157" edge="1">
                    <mxGeometry width="160" relative="1" as="geometry">
                        <mxPoint x="-4.8400000000001455" y="379.712" as="sourcePoint"/>
                        <mxPoint x="-5" y="450" as="targetPoint"/>
                    </mxGeometry>
                </mxCell>
                <mxCell id="92" value="" style="endArrow=diamondThin;endFill=1;endSize=24;html=1;exitX=0.15;exitY=0.588;exitDx=0;exitDy=0;entryX=0.5;entryY=0;entryDx=0;entryDy=0;exitPerimeter=0;" parent="1" source="138" target="157" edge="1">
                    <mxGeometry width="160" relative="1" as="geometry">
                        <mxPoint x="254.99999999999955" y="220" as="sourcePoint"/>
                        <mxPoint x="-20" y="400" as="targetPoint"/>
                        <Array as="points"/>
                    </mxGeometry>
                </mxCell>
                <mxCell id="93" value="" style="endArrow=diamondThin;endFill=1;endSize=24;html=1;exitX=-0.008;exitY=-0.064;exitDx=0;exitDy=0;exitPerimeter=0;entryX=0.75;entryY=0;entryDx=0;entryDy=0;" parent="1" target="157" edge="1">
                    <mxGeometry width="160" relative="1" as="geometry">
                        <mxPoint x="563.7199999999993" y="198.336" as="sourcePoint"/>
                        <mxPoint x="34.999999999999545" y="400" as="targetPoint"/>
                        <Array as="points">
                            <mxPoint x="285" y="280"/>
                        </Array>
                    </mxGeometry>
                </mxCell>
                <mxCell id="94" value="&amp;lt;&amp;lt;uses&amp;gt;&amp;gt;" style="endArrow=open;startArrow=none;endFill=0;startFill=0;endSize=8;html=1;verticalAlign=bottom;dashed=1;labelBackgroundColor=none;exitX=0.75;exitY=0;exitDx=0;exitDy=0;entryX=0.5;entryY=1;entryDx=0;entryDy=0;" parent="1" source="199" target="165" edge="1">
                    <mxGeometry x="-0.4286" y="-10" width="160" relative="1" as="geometry">
                        <mxPoint x="-45" y="346" as="sourcePoint"/>
                        <mxPoint x="-45" y="292" as="targetPoint"/>
                        <mxPoint as="offset"/>
                    </mxGeometry>
                </mxCell>
                <mxCell id="95" value="" style="endArrow=diamondThin;endFill=1;endSize=24;html=1;exitX=0;exitY=0;exitDx=0;exitDy=0;entryX=1;entryY=0.75;entryDx=0;entryDy=0;" parent="1" source="32" target="157" edge="1">
                    <mxGeometry width="160" relative="1" as="geometry">
                        <mxPoint x="185" y="540" as="sourcePoint"/>
                        <mxPoint x="34.999999999999545" y="465" as="targetPoint"/>
                        <Array as="points">
                            <mxPoint x="565" y="290"/>
                            <mxPoint x="400" y="290"/>
                            <mxPoint x="400" y="410"/>
                            <mxPoint x="190" y="410"/>
                            <mxPoint x="190" y="494"/>
                        </Array>
                    </mxGeometry>
                </mxCell>
                <mxCell id="98" value="&lt;p style=&quot;margin:0px;margin-top:4px;text-align:center;&quot;&gt;&lt;b&gt;PersonalBelonging&lt;/b&gt;&lt;/p&gt;&lt;hr size=&quot;1&quot; style=&quot;border-style:solid;&quot;&gt;&lt;p style=&quot;margin:0px;margin-left:4px;&quot;&gt;- description: String&lt;/p&gt;&lt;hr size=&quot;1&quot; style=&quot;border-style:solid;&quot;&gt;&lt;p style=&quot;margin:0px;margin-left:4px;&quot;&gt;+ PersonalBelonging(String description, String comments, int quantity)&lt;/p&gt;&lt;p style=&quot;margin:0px;margin-left:4px;&quot;&gt;+ void setDescription(String description)&lt;/p&gt;&lt;p style=&quot;margin:0px;margin-left:4px;&quot;&gt;+ String getDescription()&lt;/p&gt;" style="verticalAlign=top;align=left;overflow=fill;html=1;whiteSpace=wrap;" parent="1" vertex="1">
                    <mxGeometry x="960" y="12" width="230" height="120" as="geometry"/>
                </mxCell>
                <mxCell id="99" value="&lt;p style=&quot;margin:0px;margin-top:4px;text-align:center;&quot;&gt;&lt;b&gt;Cot&lt;/b&gt;&lt;/p&gt;&lt;hr size=&quot;1&quot; style=&quot;border-style:solid;&quot;&gt;&lt;p style=&quot;margin:0px;margin-left:4px;&quot;&gt;- room: int&lt;/p&gt;&lt;p style=&quot;margin:0px;margin-left:4px;&quot;&gt;- grid: String&lt;/p&gt;&lt;hr size=&quot;1&quot; style=&quot;border-style:solid;&quot;&gt;&lt;p style=&quot;margin:0px;margin-left:4px;&quot;&gt;+ Cot(String room, String grid, String comments)&lt;/p&gt;&lt;p style=&quot;margin:0px;margin-left:4px;&quot;&gt;+ String getRoom()&lt;/p&gt;&lt;p style=&quot;margin:0px;margin-left:4px;&quot;&gt;+ void setRoom(String room)&lt;/p&gt;&lt;p style=&quot;scrollbar-color: light-dark(#e2e2e2, #4b4b4b)&lt;br/&gt;&#x9;&#x9;&#x9;&#x9;&#x9;light-dark(#fbfbfb, var(--dark-panel-color)); margin: 0px 0px 0px 4px;&quot;&gt;+ String getGrid()&lt;/p&gt;&lt;p style=&quot;scrollbar-color: light-dark(#e2e2e2, #4b4b4b)&lt;br/&gt;&#x9;&#x9;&#x9;&#x9;&#x9;light-dark(#fbfbfb, var(--dark-panel-color)); margin: 0px 0px 0px 4px;&quot;&gt;+ void setGrid(String grid)&lt;/p&gt;&lt;p style=&quot;scrollbar-color: light-dark(#e2e2e2, #4b4b4b)&lt;br/&gt;&#x9;&#x9;&#x9;&#x9;&#x9;light-dark(#fbfbfb, var(--dark-panel-color)); margin: 0px 0px 0px 4px;&quot;&gt;- boolean isValidGrid(String grid)&lt;/p&gt;&lt;p style=&quot;scrollbar-color: light-dark(#e2e2e2, #4b4b4b)&lt;br/&gt;&#x9;&#x9;&#x9;&#x9;&#x9;light-dark(#fbfbfb, var(--dark-panel-color)); margin: 0px 0px 0px 4px;&quot;&gt;- boolean isValidRoom(String room)&lt;/p&gt;" style="verticalAlign=top;align=left;overflow=fill;html=1;whiteSpace=wrap;" parent="1" vertex="1">
                    <mxGeometry x="960" y="146" width="170" height="214" as="geometry"/>
                </mxCell>
                <mxCell id="101" value="&lt;p style=&quot;margin:0px;margin-top:4px;text-align:center;&quot;&gt;&lt;b&gt;IllegalArgumentException&lt;/b&gt;&lt;/p&gt;" style="verticalAlign=top;align=left;overflow=fill;html=1;whiteSpace=wrap;" parent="1" vertex="1">
                    <mxGeometry x="1240" y="230" width="190" height="29" as="geometry"/>
                </mxCell>
                <mxCell id="102" value="&amp;lt;&amp;lt;throws&amp;gt;&amp;gt;" style="endArrow=open;endSize=12;dashed=1;html=1;exitX=1.012;exitY=0.695;exitDx=0;exitDy=0;entryX=0.082;entryY=0.978;entryDx=0;entryDy=0;entryPerimeter=0;exitPerimeter=0;" parent="1" source="99" target="101" edge="1">
                    <mxGeometry width="160" relative="1" as="geometry">
                        <mxPoint x="1160" y="458.46" as="sourcePoint"/>
                        <mxPoint x="1320" y="458.46" as="targetPoint"/>
                    </mxGeometry>
                </mxCell>
                <mxCell id="103" value="&lt;p style=&quot;margin:0px;margin-top:4px;text-align:center;&quot;&gt;&lt;b&gt;Water&lt;/b&gt;&lt;/p&gt;&lt;hr size=&quot;1&quot; style=&quot;border-style:solid;&quot;&gt;&lt;p style=&quot;margin:0px;margin-left:4px;&quot;&gt;- allocationDate: String&lt;/p&gt;&lt;hr size=&quot;1&quot; style=&quot;border-style:solid;&quot;&gt;&lt;p style=&quot;margin:0px;margin-left:4px;&quot;&gt;&lt;span style=&quot;background-color: transparent;&quot;&gt;+ Water(String comments, int quanity)&lt;/span&gt;&lt;/p&gt;&lt;p style=&quot;margin:0px;margin-left:4px;&quot;&gt;+ String getAllocationDate()&lt;/p&gt;&lt;p style=&quot;margin:0px;margin-left:4px;&quot;&gt;+ void setAllocationDate(String date)&lt;/p&gt;&lt;p style=&quot;margin:0px;margin-left:4px;&quot;&gt;+ boolean isConsumed(String date)&lt;/p&gt;&lt;p style=&quot;margin:0px;margin-left:4px;&quot;&gt;- boolean isValidDateFormat(): String&lt;/p&gt;" style="verticalAlign=top;align=left;overflow=fill;html=1;whiteSpace=wrap;" parent="1" vertex="1">
                    <mxGeometry x="960" y="366" width="230" height="134" as="geometry"/>
                </mxCell>
                <mxCell id="105" value="&amp;lt;&amp;lt;throws&amp;gt;&amp;gt;" style="endArrow=open;endSize=12;dashed=1;html=1;entryX=0.25;entryY=1;entryDx=0;entryDy=0;exitX=1;exitY=0.5;exitDx=0;exitDy=0;" parent="1" source="103" target="101" edge="1">
                    <mxGeometry width="160" relative="1" as="geometry">
                        <mxPoint x="1180" y="460" as="sourcePoint"/>
                        <mxPoint x="1346" y="393.5" as="targetPoint"/>
                    </mxGeometry>
                </mxCell>
                <mxCell id="107" value="&lt;p style=&quot;text-align: center; margin: 4px 0px 0px;&quot;&gt;&lt;b&gt;Supply&lt;/b&gt;&lt;/p&gt;&lt;hr size=&quot;1&quot; style=&quot;border-style:solid;&quot;&gt;&lt;p style=&quot;margin:0px;margin-left:4px;&quot;&gt;# TYPE: String&lt;/p&gt;&lt;p style=&quot;margin:0px;margin-left:4px;&quot;&gt;# id: int&lt;/p&gt;&lt;p style=&quot;margin:0px;margin-left:4px;&quot;&gt;# comments: String&lt;/p&gt;&lt;p style=&quot;margin:0px;margin-left:4px;&quot;&gt;# quantity: int&lt;/p&gt;&lt;p style=&quot;margin:0px;margin-left:4px;&quot;&gt;&lt;u&gt;# counter: int&lt;/u&gt;&lt;/p&gt;&lt;hr size=&quot;1&quot; style=&quot;border-style:solid;&quot;&gt;&lt;p style=&quot;margin:0px;margin-left:4px;&quot;&gt;+ Supply(String type, int quantity, int id)&lt;/p&gt;&lt;p style=&quot;margin:0px;margin-left:4px;&quot;&gt;+ Supply(String type, int quantity)&lt;/p&gt;&lt;p style=&quot;margin:0px;margin-left:4px;&quot;&gt;+ String getType()&lt;/p&gt;&lt;p style=&quot;margin:0px;margin-left:4px;&quot;&gt;+ int getId()&lt;/p&gt;&lt;p style=&quot;margin:0px;margin-left:4px;&quot;&gt;+ int setId()&lt;/p&gt;&lt;p style=&quot;margin:0px;margin-left:4px;&quot;&gt;+ String getComments()&lt;/p&gt;&lt;p style=&quot;margin:0px;margin-left:4px;&quot;&gt;+ void setComments(String)&lt;/p&gt;&lt;p style=&quot;margin:0px;margin-left:4px;&quot;&gt;+ int getQuantity()&lt;/p&gt;&lt;p style=&quot;margin:0px;margin-left:4px;&quot;&gt;+ void setQuantity(int)&lt;/p&gt;&lt;p style=&quot;margin:0px;margin-left:4px;&quot;&gt;&lt;u&gt;- boolean isValidType(String type)&lt;/u&gt;&lt;/p&gt;&lt;p style=&quot;margin: 0px 0px 0px 4px;&quot;&gt;+ void addEntry()&lt;/p&gt;&lt;p style=&quot;margin: 0px 0px 0px 4px;&quot;&gt;&lt;span style=&quot;background-color: transparent;&quot;&gt;+ void updateEntry()&lt;/span&gt;&lt;/p&gt;" style="verticalAlign=top;align=left;overflow=fill;html=1;whiteSpace=wrap;" parent="1" vertex="1">
                    <mxGeometry x="960" y="530" width="190" height="300" as="geometry"/>
                </mxCell>
                <mxCell id="109" value="&lt;p style=&quot;margin:0px;margin-top:4px;text-align:center;&quot;&gt;&lt;b&gt;IllegalArgumentException&lt;/b&gt;&lt;/p&gt;" style="verticalAlign=top;align=left;overflow=fill;html=1;whiteSpace=wrap;" parent="1" vertex="1">
                    <mxGeometry x="1230" y="756" width="190" height="29" as="geometry"/>
                </mxCell>
                <mxCell id="110" value="&amp;lt;&amp;lt;throws&amp;gt;&amp;gt;" style="endArrow=open;endSize=12;dashed=1;html=1;entryX=0;entryY=1;entryDx=0;entryDy=0;exitX=1;exitY=0.801;exitDx=0;exitDy=0;exitPerimeter=0;" parent="1" source="107" target="109" edge="1">
                    <mxGeometry x="-0.0061" width="160" relative="1" as="geometry">
                        <mxPoint x="1143" y="764" as="sourcePoint"/>
                        <mxPoint x="1310" y="660" as="targetPoint"/>
                        <mxPoint as="offset"/>
                    </mxGeometry>
                </mxCell>
                <mxCell id="111" value="&amp;lt;&amp;lt;throws&amp;gt;&amp;gt;" style="endArrow=open;endSize=12;dashed=1;html=1;exitX=1;exitY=0.5;exitDx=0;exitDy=0;entryX=0.5;entryY=0;entryDx=0;entryDy=0;" parent="1" source="107" target="109" edge="1">
                    <mxGeometry x="-0.0061" width="160" relative="1" as="geometry">
                        <mxPoint x="1203" y="676" as="sourcePoint"/>
                        <mxPoint x="1310" y="660" as="targetPoint"/>
                        <mxPoint as="offset"/>
                    </mxGeometry>
                </mxCell>
                <mxCell id="112" value="&lt;p style=&quot;margin:0px;margin-top:4px;text-align:center;&quot;&gt;&lt;b&gt;MedicalRecord&lt;/b&gt;&lt;/p&gt;&lt;hr size=&quot;1&quot; style=&quot;border-style:solid;&quot;&gt;&lt;p style=&quot;margin:0px;margin-left:4px;&quot;&gt;- location: Location&lt;/p&gt;&lt;p style=&quot;margin:0px;margin-left:4px;&quot;&gt;- treatmentDetails: String&lt;/p&gt;&lt;p style=&quot;margin:0px;margin-left:4px;&quot;&gt;- dateOfTreatment: String&lt;/p&gt;&lt;p style=&quot;margin: 0px 0px 0px 4px;&quot;&gt;- id: int&lt;/p&gt;&lt;p style=&quot;margin: 0px 0px 0px 4px;&quot;&gt;-&amp;nbsp;&lt;u&gt;counter: int&lt;/u&gt;&lt;/p&gt;&lt;hr size=&quot;1&quot; style=&quot;border-style:solid;&quot;&gt;&lt;p style=&quot;margin:0px;margin-left:4px;&quot;&gt;+ MedicalRecord(Location location, String details, String date)&lt;/p&gt;&lt;p style=&quot;margin:0px;margin-left:4px;&quot;&gt;+ Location getLocation()&lt;/p&gt;&lt;p style=&quot;margin:0px;margin-left:4px;&quot;&gt;+ void setLocation(Location location)&lt;/p&gt;&lt;p style=&quot;margin:0px;margin-left:4px;&quot;&gt;+ String getTreatmentDetails()&lt;/p&gt;&lt;p style=&quot;margin:0px;margin-left:4px;&quot;&gt;+ void setTreatmentDetails(String details)&lt;/p&gt;&lt;p style=&quot;margin:0px;margin-left:4px;&quot;&gt;+ String getDateOfTreatment()&lt;/p&gt;&lt;p style=&quot;margin:0px;margin-left:4px;&quot;&gt;+ void setDateOfTreatment(String date)&lt;/p&gt;&lt;p style=&quot;margin:0px;margin-left:4px;&quot;&gt;- boolean isValidDateFormat(String date)&lt;/p&gt;&lt;p style=&quot;margin: 0px 0px 0px 4px;&quot;&gt;+ void addEntry()&lt;/p&gt;&lt;p style=&quot;margin: 0px 0px 0px 4px;&quot;&gt;&lt;span style=&quot;background-color: transparent;&quot;&gt;+ void updateEntry()&lt;/span&gt;&lt;/p&gt;&lt;p style=&quot;margin: 0px 0px 0px 4px;&quot;&gt;+ String getId()&lt;/p&gt;&lt;p style=&quot;margin: 0px 0px 0px 4px;&quot;&gt;+ void setId()&lt;/p&gt;" style="verticalAlign=top;align=left;overflow=fill;html=1;whiteSpace=wrap;" parent="1" vertex="1">
                    <mxGeometry x="950" y="866" width="230" height="314" as="geometry"/>
                </mxCell>
                <mxCell id="113" value="&amp;lt;&amp;lt;throws&amp;gt;&amp;gt;" style="endArrow=open;endSize=12;dashed=1;html=1;exitX=1.011;exitY=0.842;exitDx=0;exitDy=0;exitPerimeter=0;" parent="1" source="112" edge="1">
                    <mxGeometry x="-0.0061" width="160" relative="1" as="geometry">
                        <mxPoint x="1150" y="769" as="sourcePoint"/>
                        <mxPoint x="1300" y="786" as="targetPoint"/>
                        <Array as="points"/>
                        <mxPoint as="offset"/>
                    </mxGeometry>
                </mxCell>
                <mxCell id="114" value="&amp;lt;&amp;lt;throws&amp;gt;&amp;gt;" style="endArrow=open;endSize=12;dashed=1;html=1;entryX=0.106;entryY=1.034;entryDx=0;entryDy=0;exitX=1.007;exitY=0.411;exitDx=0;exitDy=0;exitPerimeter=0;entryPerimeter=0;" parent="1" source="112" target="109" edge="1">
                    <mxGeometry x="-0.0061" width="160" relative="1" as="geometry">
                        <mxPoint x="1203" y="1014" as="sourcePoint"/>
                        <mxPoint x="1405" y="668" as="targetPoint"/>
                        <Array as="points"/>
                        <mxPoint as="offset"/>
                    </mxGeometry>
                </mxCell>
                <mxCell id="115" value="&lt;p style=&quot;margin:0px;margin-top:4px;text-align:center;&quot;&gt;&lt;b&gt;Location&lt;/b&gt;&lt;/p&gt;&lt;hr size=&quot;1&quot; style=&quot;border-style:solid;&quot;&gt;&lt;p style=&quot;margin:0px;margin-left:4px;&quot;&gt;- name: String&lt;/p&gt;&lt;p style=&quot;margin:0px;margin-left:4px;&quot;&gt;- address: String&lt;/p&gt;&lt;p style=&quot;margin:0px;margin-left:4px;&quot;&gt;- occupants: DisasterVictim[]&lt;/p&gt;&lt;p style=&quot;margin:0px;margin-left:4px;&quot;&gt;- supplies: Supply[]&lt;/p&gt;&lt;p style=&quot;margin:0px;margin-left:4px;&quot;&gt;- Iid: int&lt;/p&gt;&lt;p style=&quot;margin:0px;margin-left:4px;&quot;&gt;&lt;u&gt;- counter:int&lt;/u&gt;&lt;/p&gt;&lt;hr size=&quot;1&quot; style=&quot;border-style:solid;&quot;&gt;&lt;p style=&quot;margin:0px;margin-left:4px;&quot;&gt;+ Location(String name, String address)&lt;/p&gt;&lt;p style=&quot;margin:0px;margin-left:4px;&quot;&gt;+ String getName()&lt;/p&gt;&lt;p style=&quot;margin:0px;margin-left:4px;&quot;&gt;+ void setName(String)&lt;/p&gt;&lt;p style=&quot;margin:0px;margin-left:4px;&quot;&gt;+ String getAddress()&lt;/p&gt;&lt;p style=&quot;margin:0px;margin-left:4px;&quot;&gt;+ void setAddress()&lt;/p&gt;&lt;p style=&quot;margin:0px;margin-left:4px;&quot;&gt;+ DisasterVictim[] getOccupants()&lt;/p&gt;&lt;p style=&quot;margin:0px;margin-left:4px;&quot;&gt;+ void setOccupants(DisasterVictim[] occupants)&lt;/p&gt;&lt;p style=&quot;margin:0px;margin-left:4px;&quot;&gt;+ void addOccupant(DisasterVictim occupant)&lt;/p&gt;&lt;p style=&quot;margin:0px;margin-left:4px;&quot;&gt;+ void removeOccupant(DisasterVictim occupant)&lt;/p&gt;&lt;p style=&quot;margin:0px;margin-left:4px;&quot;&gt;+ void addSupply(Supply supply)&lt;/p&gt;&lt;p style=&quot;margin:0px;margin-left:4px;&quot;&gt;+ void removeSupply(Supply supply)&lt;/p&gt;&lt;p style=&quot;margin:0px;margin-left:4px;&quot;&gt;+ boolean containsSupply(Supply check)&lt;/p&gt;&lt;p style=&quot;margin: 0px 0px 0px 4px;&quot;&gt;+ void addEntry()&lt;/p&gt;&lt;p style=&quot;margin: 0px 0px 0px 4px;&quot;&gt;&lt;span style=&quot;background-color: transparent;&quot;&gt;+ void updateEntry()&lt;/span&gt;&lt;/p&gt;&lt;p style=&quot;margin: 0px 0px 0px 4px;&quot;&gt;+ String getId()&lt;/p&gt;&lt;p style=&quot;margin: 0px 0px 0px 4px;&quot;&gt;+ void setId()&lt;/p&gt;" style="verticalAlign=top;align=left;overflow=fill;html=1;whiteSpace=wrap;" parent="1" vertex="1">
                    <mxGeometry x="1470" y="68" width="280" height="372" as="geometry"/>
                </mxCell>
                <mxCell id="118" value="&lt;p style=&quot;margin:0px;margin-top:4px;text-align:center;&quot;&gt;&lt;b&gt;Inquiry&lt;/b&gt;&lt;/p&gt;&lt;hr size=&quot;1&quot; style=&quot;border-style:solid;&quot;&gt;&lt;p style=&quot;margin:0px;margin-left:4px;&quot;&gt;- inquirer: Person&lt;/p&gt;&lt;p style=&quot;margin:0px;margin-left:4px;&quot;&gt;- MISSING_PERSON: DisasterVictim&lt;/p&gt;&lt;p style=&quot;margin:0px;margin-left:4px;&quot;&gt;- DATE_OF_INQUIRY: String&lt;/p&gt;&lt;p style=&quot;margin:0px;margin-left:4px;&quot;&gt;- infoProvided: String&lt;/p&gt;&lt;p style=&quot;margin:0px;margin-left:4px;&quot;&gt;- lastKnownLocation: Location&lt;/p&gt;&lt;p style=&quot;margin:0px;margin-left:4px;&quot;&gt;- id: int&lt;/p&gt;&lt;p style=&quot;margin:0px;margin-left:4px;&quot;&gt;&lt;u&gt;- counter: int&lt;/u&gt;&lt;/p&gt;&lt;hr size=&quot;1&quot; style=&quot;border-style:solid;&quot;&gt;&lt;p style=&quot;margin:0px;margin-left:4px;&quot;&gt;+ Inquiry(Person Inquirer, DisasterVictim missingPerson, String dateOfInquiry, String infoProvided, Location lastKnownLocation)&lt;/p&gt;&lt;p style=&quot;margin:0px;margin-left:4px;&quot;&gt;+ Person getInquirer()&lt;/p&gt;&lt;p style=&quot;margin:0px;margin-left:4px;&quot;&gt;+ void setInquirer(Person inquirer)&lt;/p&gt;&lt;p style=&quot;margin:0px;margin-left:4px;&quot;&gt;+ DisasterVictim getMissingPerson()&lt;/p&gt;&lt;p style=&quot;margin:0px;margin-left:4px;&quot;&gt;+ void setMissingPerson(DisasterVictim person)&lt;/p&gt;&lt;p style=&quot;margin:0px;margin-left:4px;&quot;&gt;+ String getDateOfInquiry()&lt;/p&gt;&lt;p style=&quot;margin:0px;margin-left:4px;&quot;&gt;+ String getInfoProvided()&lt;/p&gt;&lt;p style=&quot;margin:0px;margin-left:4px;&quot;&gt;+ void setInfoProvided(String info)&lt;/p&gt;&lt;p style=&quot;margin:0px;margin-left:4px;&quot;&gt;+ Location getLastKnownLocation()&lt;/p&gt;&lt;p style=&quot;margin:0px;margin-left:4px;&quot;&gt;+ void setLastKnownLocation(Location location )&lt;/p&gt;&lt;p style=&quot;margin:0px;margin-left:4px;&quot;&gt;&lt;u&gt;- boolean isValidDateFormat(String date)&lt;/u&gt;&lt;/p&gt;&lt;p style=&quot;margin: 0px 0px 0px 4px;&quot;&gt;+ void addEntry()&lt;/p&gt;&lt;p style=&quot;margin: 0px 0px 0px 4px;&quot;&gt;+ void updateEntry()&lt;/p&gt;&lt;p style=&quot;margin: 0px 0px 0px 4px;&quot;&gt;+ String getId()&lt;/p&gt;&lt;p style=&quot;margin: 0px 0px 0px 4px;&quot;&gt;+ void setId()&lt;/p&gt;&lt;p style=&quot;margin:0px;margin-left:4px;&quot;&gt;&lt;br&gt;&lt;/p&gt;&lt;p style=&quot;margin:0px;margin-left:4px;&quot;&gt;&amp;nbsp;&lt;/p&gt;" style="verticalAlign=top;align=left;overflow=fill;html=1;whiteSpace=wrap;" parent="1" vertex="1">
                    <mxGeometry x="1540" y="467" width="320" height="394" as="geometry"/>
                </mxCell>
                <mxCell id="121" value="&amp;lt;&amp;lt;throws&amp;gt;&amp;gt;" style="endArrow=open;endSize=12;dashed=1;html=1;entryX=1;entryY=0.5;entryDx=0;entryDy=0;exitX=-0.006;exitY=0.398;exitDx=0;exitDy=0;exitPerimeter=0;" parent="1" source="118" target="109" edge="1">
                    <mxGeometry x="-0.0061" width="160" relative="1" as="geometry">
                        <mxPoint x="1507" y="650" as="sourcePoint"/>
                        <mxPoint x="1414" y="667" as="targetPoint"/>
                        <Array as="points"/>
                        <mxPoint as="offset"/>
                    </mxGeometry>
                </mxCell>
                <mxCell id="122" value="&lt;p style=&quot;margin:0px;margin-top:4px;text-align:center;&quot;&gt;&lt;b&gt;Person&lt;/b&gt;&lt;/p&gt;&lt;hr size=&quot;1&quot; style=&quot;border-style:solid;&quot;&gt;&lt;p style=&quot;margin:0px;margin-left:4px;&quot;&gt;# firstName: String&lt;/p&gt;&lt;p style=&quot;margin:0px;margin-left:4px;&quot;&gt;# lastName: String&lt;/p&gt;&lt;p style=&quot;margin:0px;margin-left:4px;&quot;&gt;# birthDate: String&amp;nbsp;&lt;/p&gt;&lt;p style=&quot;margin:0px;margin-left:4px;&quot;&gt;# gender: String&lt;/p&gt;&lt;p style=&quot;margin:0px;margin-left:4px;&quot;&gt;# comments: String&lt;/p&gt;&lt;p style=&quot;margin:0px;margin-left:4px;&quot;&gt;# phoneNum: String&lt;/p&gt;&lt;p style=&quot;margin:0px;margin-left:4px;&quot;&gt;# familyGroup: FamilyGroup&lt;/p&gt;&lt;p style=&quot;margin:0px;margin-left:4px;&quot;&gt;# TYPE: String = Inquirer&lt;/p&gt;&lt;p style=&quot;margin:0px;margin-left:4px;&quot;&gt;# id: int&lt;/p&gt;&lt;p style=&quot;margin:0px;margin-left:4px;&quot;&gt;# &lt;u&gt;counter: int&lt;/u&gt;&lt;/p&gt;&lt;hr size=&quot;1&quot; style=&quot;border-style:solid;&quot;&gt;&lt;p style=&quot;margin:0px;margin-left:4px;&quot;&gt;&lt;span style=&quot;background-color: transparent;&quot;&gt;+ Person(String firstName, String lastName, String birthDate, String gender, String phoneNum)&lt;/span&gt;&lt;/p&gt;&lt;p style=&quot;margin:0px;margin-left:4px;&quot;&gt;&lt;span style=&quot;background-color: transparent;&quot;&gt;+ Person(String firstName, String lastName, String birthDate, String gender, String phoneNum, String type)&lt;/span&gt;&lt;br&gt;&lt;/p&gt;&lt;p style=&quot;margin:0px;margin-left:4px;&quot;&gt;&lt;span style=&quot;background-color: transparent;&quot;&gt;+ String getFirstName()&lt;/span&gt;&lt;/p&gt;&lt;p style=&quot;margin:0px;margin-left:4px;&quot;&gt;&lt;span style=&quot;background-color: transparent;&quot;&gt;+ void setFirstName(String firstName)&lt;/span&gt;&lt;/p&gt;&lt;p style=&quot;margin:0px;margin-left:4px;&quot;&gt;&lt;span style=&quot;background-color: transparent;&quot;&gt;+ String getType()&lt;/span&gt;&lt;/p&gt;&lt;p style=&quot;scrollbar-color: light-dark(#e2e2e2, #4b4b4b)&lt;br/&gt;&#x9;&#x9;&#x9;&#x9;&#x9;light-dark(#fbfbfb, var(--dark-panel-color)); margin: 0px 0px 0px 4px;&quot;&gt;+ String getLastName()&lt;/p&gt;&lt;p style=&quot;scrollbar-color: light-dark(#e2e2e2, #4b4b4b)&lt;br/&gt;&#x9;&#x9;&#x9;&#x9;&#x9;light-dark(#fbfbfb, var(--dark-panel-color)); margin: 0px 0px 0px 4px;&quot;&gt;+ void setLastName(String laftName)&lt;/p&gt;&lt;p style=&quot;scrollbar-color: light-dark(#e2e2e2, #4b4b4b)&lt;br/&gt;&#x9;&#x9;&#x9;&#x9;&#x9;light-dark(#fbfbfb, var(--dark-panel-color)); margin: 0px 0px 0px 4px;&quot;&gt;+ String getPhoneNum()&lt;/p&gt;&lt;p style=&quot;scrollbar-color: light-dark(#e2e2e2, #4b4b4b)&lt;br/&gt;&#x9;&#x9;&#x9;&#x9;&#x9;light-dark(#fbfbfb, var(--dark-panel-color)); margin: 0px 0px 0px 4px;&quot;&gt;+ void setPhoneNum(String phoneNum)&lt;/p&gt;&lt;p style=&quot;scrollbar-color: light-dark(#e2e2e2, #4b4b4b)&lt;br/&gt;&#x9;&#x9;&#x9;&#x9;&#x9;light-dark(#fbfbfb, var(--dark-panel-color)); margin: 0px 0px 0px 4px;&quot;&gt;+ String getBirthDate()&lt;/p&gt;&lt;p style=&quot;scrollbar-color: light-dark(#e2e2e2, #4b4b4b)&lt;br/&gt;&#x9;&#x9;&#x9;&#x9;&#x9;light-dark(#fbfbfb, var(--dark-panel-color)); margin: 0px 0px 0px 4px;&quot;&gt;+ void setBirthDate()&lt;/p&gt;&lt;p style=&quot;scrollbar-color: light-dark(#e2e2e2, #4b4b4b)&lt;br/&gt;&#x9;&#x9;&#x9;&#x9;&#x9;light-dark(#fbfbfb, var(--dark-panel-color)); margin: 0px 0px 0px 4px;&quot;&gt;+ String getGender()&lt;/p&gt;&lt;p style=&quot;scrollbar-color: light-dark(#e2e2e2, #4b4b4b)&lt;br/&gt;&#x9;&#x9;&#x9;&#x9;&#x9;light-dark(#fbfbfb, var(--dark-panel-color)); margin: 0px 0px 0px 4px;&quot;&gt;+ void setGender(String gender)&lt;/p&gt;&lt;p style=&quot;scrollbar-color: light-dark(#e2e2e2, #4b4b4b)&lt;br/&gt;&#x9;&#x9;&#x9;&#x9;&#x9;light-dark(#fbfbfb, var(--dark-panel-color)); margin: 0px 0px 0px 4px;&quot;&gt;&lt;span style=&quot;background-color: transparent;&quot;&gt;+ void addFamilyMember(Person family)&lt;/span&gt;&lt;/p&gt;&lt;p style=&quot;scrollbar-color: light-dark(#e2e2e2, #4b4b4b)&lt;br/&gt;&#x9;&#x9;&#x9;&#x9;&#x9;light-dark(#fbfbfb, var(--dark-panel-color)); margin: 0px 0px 0px 4px;&quot;&gt;&lt;span style=&quot;background-color: transparent;&quot;&gt;+ void setFamilyGroup(FamilyGroup familyGroup)&lt;/span&gt;&lt;/p&gt;&lt;p style=&quot;scrollbar-color: light-dark(#e2e2e2, #4b4b4b)&lt;br/&gt;&#x9;&#x9;&#x9;&#x9;&#x9;light-dark(#fbfbfb, var(--dark-panel-color)); margin: 0px 0px 0px 4px;&quot;&gt;&lt;span style=&quot;background-color: transparent;&quot;&gt;+ FamilyGroup getFamilyGroup()&lt;/span&gt;&lt;/p&gt;&lt;p style=&quot;scrollbar-color: light-dark(#e2e2e2, #4b4b4b)&lt;br/&gt;&#x9;&#x9;&#x9;&#x9;&#x9;light-dark(#fbfbfb, var(--dark-panel-color)); margin: 0px 0px 0px 4px;&quot;&gt;&lt;span style=&quot;background-color: transparent;&quot;&gt;# boolean isValidDateFormat(String date)&lt;/span&gt;&lt;br&gt;&lt;/p&gt;&lt;p style=&quot;scrollbar-color: light-dark(#e2e2e2, #4b4b4b)&lt;br/&gt;&#x9;&#x9;&#x9;&#x9;&#x9;light-dark(#fbfbfb, var(--dark-panel-color)); margin: 0px 0px 0px 4px;&quot;&gt;# boolean isValidGender(String gender)&lt;/p&gt;&lt;p style=&quot;scrollbar-color: light-dark(#e2e2e2, #4b4b4b)&lt;br/&gt;&#x9;&#x9;&#x9;&#x9;&#x9;light-dark(#fbfbfb, var(--dark-panel-color)); margin: 0px 0px 0px 4px;&quot;&gt;# boolean isValidPhoneNum(String phoneNum)&amp;nbsp;&lt;/p&gt;&lt;p style=&quot;margin: 0px 0px 0px 4px;&quot;&gt;+ void addEntry()&lt;/p&gt;&lt;p style=&quot;margin: 0px 0px 0px 4px;&quot;&gt;&lt;span style=&quot;background-color: transparent;&quot;&gt;+ void updateEntry()&lt;/span&gt;&lt;/p&gt;&lt;p style=&quot;margin: 0px 0px 0px 4px;&quot;&gt;+ String getId()&lt;/p&gt;&lt;p style=&quot;margin: 0px 0px 0px 4px;&quot;&gt;+ void setId()&lt;/p&gt;" style="verticalAlign=top;align=left;overflow=fill;html=1;whiteSpace=wrap;" parent="1" vertex="1">
                    <mxGeometry x="1540" y="880" width="340" height="560" as="geometry"/>
                </mxCell>
                <mxCell id="123" value="&amp;lt;&amp;lt;throws&amp;gt;&amp;gt;" style="endArrow=open;endSize=12;dashed=1;html=1;entryX=1;entryY=1;entryDx=0;entryDy=0;exitX=0;exitY=0.355;exitDx=0;exitDy=0;exitPerimeter=0;" parent="1" source="122" target="109" edge="1">
                    <mxGeometry x="-0.0061" width="160" relative="1" as="geometry">
                        <mxPoint x="1507" y="1020" as="sourcePoint"/>
                        <mxPoint x="1370" y="895" as="targetPoint"/>
                        <Array as="points">
                            <mxPoint x="1470" y="880"/>
                        </Array>
                        <mxPoint as="offset"/>
                    </mxGeometry>
                </mxCell>
                <mxCell id="125" value="&amp;lt;&amp;lt;throws&amp;gt;&amp;gt;" style="endArrow=open;endSize=12;dashed=1;html=1;entryX=0.5;entryY=1;entryDx=0;entryDy=0;exitX=0.006;exitY=0.734;exitDx=0;exitDy=0;exitPerimeter=0;" parent="1" source="122" target="109" edge="1">
                    <mxGeometry x="-0.0061" width="160" relative="1" as="geometry">
                        <mxPoint x="1510" y="1190" as="sourcePoint"/>
                        <mxPoint x="1409" y="666" as="targetPoint"/>
                        <Array as="points">
                            <mxPoint x="1350" y="1020"/>
                        </Array>
                        <mxPoint as="offset"/>
                    </mxGeometry>
                </mxCell>
                <mxCell id="126" value="&amp;lt;&amp;lt;throws&amp;gt;&amp;gt;" style="endArrow=open;endSize=12;dashed=1;html=1;entryX=0.75;entryY=1;entryDx=0;entryDy=0;exitX=0;exitY=0.625;exitDx=0;exitDy=0;exitPerimeter=0;" parent="1" source="122" target="109" edge="1">
                    <mxGeometry x="-0.0061" width="160" relative="1" as="geometry">
                        <mxPoint x="1508" y="1130" as="sourcePoint"/>
                        <mxPoint x="1409" y="793" as="targetPoint"/>
                        <Array as="points">
                            <mxPoint x="1420" y="980"/>
                        </Array>
                        <mxPoint as="offset"/>
                    </mxGeometry>
                </mxCell>
                <mxCell id="127" value="&lt;p style=&quot;margin:0px;margin-top:4px;text-align:center;&quot;&gt;&lt;b&gt;DisasterVictim&lt;/b&gt;&lt;/p&gt;&lt;hr size=&quot;1&quot; style=&quot;border-style:solid;&quot;&gt;&lt;p style=&quot;margin:0px;margin-left:4px;&quot;&gt;- currentLocation: Location = null&lt;/p&gt;&lt;p style=&quot;margin:0px;margin-left:4px;&quot;&gt;- medicalRecords: MedicalRecord[]&lt;/p&gt;&lt;p style=&quot;margin:0px;margin-left:4px;&quot;&gt;- personalBelongings: Supply[]&lt;/p&gt;&lt;p style=&quot;margin:0px;margin-left:4px;&quot;&gt;- ENTRY_DATE: String&lt;/p&gt;&lt;hr size=&quot;1&quot; style=&quot;border-style:solid;&quot;&gt;&lt;p style=&quot;margin:0px;margin-left:4px;&quot;&gt;&lt;span&gt;&lt;font&gt;+ DisasterVictim(String firstName, String lastName, String birthDate, String gender, String phoneNum, String ENTRY_DATE)&lt;/font&gt;&lt;/span&gt;&lt;br&gt;&lt;/p&gt;&lt;p style=&quot;margin:0px;margin-left:4px;&quot;&gt;&lt;span&gt;&lt;font&gt;+ MedicalRecord[] getMedicalRecords()&lt;/font&gt;&lt;/span&gt;&lt;/p&gt;&lt;p style=&quot;margin:0px;margin-left:4px;&quot;&gt;&lt;span&gt;&lt;font&gt;+ void setMedicalRecords()&lt;/font&gt;&lt;/span&gt;&lt;/p&gt;&lt;p style=&quot;margin:0px;margin-left:4px;&quot;&gt;&lt;span&gt;&lt;font&gt;+ void addMedicalRecord(MedicalRecord record)&lt;/font&gt;&lt;/span&gt;&lt;/p&gt;&lt;p style=&quot;margin:0px;margin-left:4px;&quot;&gt;&lt;span&gt;&lt;font&gt;+ void removeMedicalRecord(MedicalRecord record)&lt;/font&gt;&lt;/span&gt;&lt;/p&gt;&lt;p style=&quot;margin:0px;margin-left:4px;&quot;&gt;&lt;span&gt;&lt;font&gt;+ Supply[] getPersonalBelongings()&lt;/font&gt;&lt;/span&gt;&lt;/p&gt;&lt;p style=&quot;margin:0px;margin-left:4px;&quot;&gt;&lt;span&gt;&lt;font&gt;+ void setPersonalBelongings(Supply belonging)&lt;/font&gt;&lt;/span&gt;&lt;/p&gt;&lt;p style=&quot;margin:0px;margin-left:4px;&quot;&gt;&lt;span&gt;&lt;font&gt;+ vois addPersonalBelonging(Supply belonging)&lt;/font&gt;&lt;/span&gt;&lt;/p&gt;&lt;p style=&quot;margin:0px;margin-left:4px;&quot;&gt;&lt;span&gt;&lt;font&gt;+ void removePersonalBelonging(Supply belonging)&lt;/font&gt;&lt;/span&gt;&lt;/p&gt;&lt;p style=&quot;margin:0px;margin-left:4px;&quot;&gt;&lt;font&gt;&lt;span&gt;+ void transferSupply(Supply supply)&lt;/span&gt;&lt;/font&gt;&lt;/p&gt;&lt;p style=&quot;margin:0px;margin-left:4px;&quot;&gt;&lt;font&gt;&lt;span&gt;+ void addSupply(Supply supply)&lt;/span&gt;&lt;/font&gt;&lt;/p&gt;&lt;p style=&quot;margin:0px;margin-left:4px;&quot;&gt;&lt;span&gt;&lt;font&gt;+ void removeUsedSupplies()&lt;/font&gt;&lt;/span&gt;&lt;/p&gt;&lt;p style=&quot;margin:0px;margin-left:4px;&quot;&gt;&lt;span&gt;&lt;font&gt;+ Location getCurrentLocation()&lt;/font&gt;&lt;/span&gt;&lt;/p&gt;&lt;p style=&quot;margin:0px;margin-left:4px;&quot;&gt;&lt;span&gt;&lt;font&gt;+ void setCurrentLocation(Location curLocation)&lt;/font&gt;&lt;/span&gt;&lt;/p&gt;&lt;p style=&quot;margin:0px;margin-left:4px;&quot;&gt;&lt;span&gt;&lt;font&gt;+ String getEntryDate()&lt;/font&gt;&lt;/span&gt;&lt;/p&gt;" style="verticalAlign=top;align=left;overflow=fill;html=1;whiteSpace=wrap;" parent="1" vertex="1">
                    <mxGeometry x="-650" y="46" width="300" height="354" as="geometry"/>
                </mxCell>
                <mxCell id="128" value="&amp;lt;&amp;lt;throws&amp;gt;&amp;gt;" style="endArrow=open;endSize=12;dashed=1;html=1;entryX=1;entryY=0.5;entryDx=0;entryDy=0;exitX=0.006;exitY=0.821;exitDx=0;exitDy=0;exitPerimeter=0;" parent="1" source="127" target="232" edge="1">
                    <mxGeometry width="160" relative="1" as="geometry">
                        <mxPoint x="-660" y="360" as="sourcePoint"/>
                        <mxPoint x="-760" y="354" as="targetPoint"/>
                    </mxGeometry>
                </mxCell>
                <mxCell id="129" value="&lt;p style=&quot;margin:0px;margin-top:4px;text-align:center;&quot;&gt;&lt;b&gt;FamilyGroup&lt;/b&gt;&lt;/p&gt;&lt;hr size=&quot;1&quot; style=&quot;border-style:solid;&quot;&gt;&lt;p style=&quot;margin:0px;margin-left:4px;&quot;&gt;&lt;span style=&quot;background-color: transparent;&quot;&gt;- familyMembers: Person[]&lt;/span&gt;&lt;/p&gt;&lt;hr size=&quot;1&quot; style=&quot;border-style:solid;&quot;&gt;&lt;p style=&quot;margin:0px;margin-left:4px;&quot;&gt;+ FamilyGroup(Person person1, Person person2)&lt;/p&gt;&lt;p style=&quot;margin:0px;margin-left:4px;&quot;&gt;+ Person[] getFamilyMembers()&lt;/p&gt;&lt;p style=&quot;margin:0px;margin-left:4px;&quot;&gt;+ void setFamilyMembers(Person[] familyMembers)&lt;/p&gt;&lt;p style=&quot;margin:0px;margin-left:4px;&quot;&gt;+ void addFamilyMember(Person member)&lt;/p&gt;&lt;p style=&quot;margin:0px;margin-left:4px;&quot;&gt;+ void removeFamilyMember(Person member)&lt;/p&gt;" style="verticalAlign=top;align=left;overflow=fill;html=1;whiteSpace=wrap;" parent="1" vertex="1">
                    <mxGeometry x="-650" y="415" width="280" height="135" as="geometry"/>
                </mxCell>
                <mxCell id="130" value="&lt;p style=&quot;margin:0px;margin-top:4px;text-align:center;&quot;&gt;&lt;b&gt;UserInterface&lt;/b&gt;&lt;/p&gt;&lt;hr size=&quot;1&quot; style=&quot;border-style:solid;&quot;&gt;&lt;p style=&quot;margin:0px;margin-left:4px;&quot;&gt;- controller: ReliefController&lt;/p&gt;&lt;p style=&quot;margin:0px;margin-left:4px;&quot;&gt;- logger: ErrorLogger&lt;/p&gt;&lt;p style=&quot;margin:0px;margin-left:4px;&quot;&gt;- validator: TextInputValidator&lt;/p&gt;&lt;p style=&quot;margin:0px;margin-left:4px;&quot;&gt;- &lt;u&gt;input: Scanner&lt;/u&gt;&lt;/p&gt;&lt;hr size=&quot;1&quot; style=&quot;border-style:solid;&quot;&gt;&lt;p style=&quot;margin:0px;margin-left:4px;&quot;&gt;+ UserInterface(ReliefController controller, ErrorLogger logger, TextInputValidator validator)&lt;/p&gt;&lt;p style=&quot;margin:0px;margin-left:4px;&quot;&gt;+ void runLoginSequence()&lt;/p&gt;&lt;p style=&quot;margin:0px;margin-left:4px;&quot;&gt;+ void mainMenu()&lt;/p&gt;&lt;p style=&quot;margin:0px;margin-left:4px;&quot;&gt;+ void dataEntryMenu()&lt;/p&gt;&lt;p style=&quot;margin:0px;margin-left:4px;&quot;&gt;+ void dataUpdateMenu()&lt;/p&gt;&lt;p style=&quot;margin:0px;margin-left:4px;&quot;&gt;+ void dataViewMenu()&lt;/p&gt;&lt;p style=&quot;margin:0px;margin-left:4px;&quot;&gt;+ void printPeople(Person[] people)&lt;/p&gt;&lt;p style=&quot;margin:0px;margin-left:4px;&quot;&gt;+ void printMedicalRecords(MedicalRecord[] records)&lt;/p&gt;&lt;p style=&quot;margin:0px;margin-left:4px;&quot;&gt;+ void printLocations(Location[] locations)&lt;/p&gt;&lt;p style=&quot;margin:0px;margin-left:4px;&quot;&gt;+ void createInquiry()&lt;/p&gt;&lt;p style=&quot;margin:0px;margin-left:4px;&quot;&gt;+ void createPerson()&lt;/p&gt;&lt;p style=&quot;margin:0px;margin-left:4px;&quot;&gt;+ void createLocation()&lt;/p&gt;&lt;p style=&quot;margin:0px;margin-left:4px;&quot;&gt;+ void updatePerson()&lt;/p&gt;&lt;p style=&quot;margin:0px;margin-left:4px;&quot;&gt;+ void updateInquiry()&lt;/p&gt;&lt;p style=&quot;margin:0px;margin-left:4px;&quot;&gt;+ void updateLocation()&lt;/p&gt;" style="verticalAlign=top;align=left;overflow=fill;html=1;whiteSpace=wrap;" parent="1" vertex="1">
                    <mxGeometry x="-650" y="584" width="250" height="366" as="geometry"/>
                </mxCell>
                <mxCell id="131" value="&lt;p style=&quot;margin:0px;margin-top:4px;text-align:center;&quot;&gt;&lt;b&gt;ReliefController&lt;/b&gt;&lt;/p&gt;&lt;hr size=&quot;1&quot; style=&quot;border-style:solid;&quot;&gt;&lt;p style=&quot;margin:0px;margin-left:4px;&quot;&gt;&lt;u&gt;- controller: ReliefController&lt;/u&gt;&lt;/p&gt;&lt;p style=&quot;margin:0px;margin-left:4px;&quot;&gt;- locations: Location[]&lt;/p&gt;&lt;p style=&quot;margin:0px;margin-left:4px;&quot;&gt;- people: Person[]&lt;/p&gt;&lt;p style=&quot;margin:0px;margin-left:4px;&quot;&gt;- inquiries: Inquiry[]&lt;/p&gt;&lt;p style=&quot;margin:0px;margin-left:4px;&quot;&gt;- familyGroups: FamilyGroup[]&lt;/p&gt;&lt;p style=&quot;margin:0px;margin-left:4px;&quot;&gt;- db: DatabaseQueryHandler&lt;/p&gt;&lt;hr size=&quot;1&quot; style=&quot;border-style:solid;&quot;&gt;&lt;p style=&quot;margin:0px;margin-left:4px;&quot;&gt;- ReliefController(String url, String uname, String pwd)&lt;/p&gt;&lt;p style=&quot;margin:0px;margin-left:4px;&quot;&gt;&lt;span&gt;&lt;font style=&quot;color: light-dark(rgb(192, 192, 192), rgb(192, 192, 192));&quot;&gt;+ ReliefController getInstance(String url, String uname, String pwd)&lt;/font&gt;&lt;/span&gt;&lt;/p&gt;&lt;p style=&quot;margin:0px;margin-left:4px;&quot;&gt;+ ReliefController getInstance()&lt;/p&gt;&lt;p style=&quot;margin:0px;margin-left:4px;&quot;&gt;+ void addDisasterVictim(String firstName, String lastName, String dateOfBirth, String gender, String phoneNum, Location currentLocation)&lt;/p&gt;&lt;p style=&quot;margin:0px;margin-left:4px;&quot;&gt;+ void addDisasterVictim(DisasterVictim victim)&lt;/p&gt;&lt;p style=&quot;margin:0px;margin-left:4px;&quot;&gt;+ void addFamilyGroup(Person[] members)&lt;/p&gt;&lt;p style=&quot;margin:0px;margin-left:4px;&quot;&gt;+ void addFamilyGroup(FamilyGroup group)&lt;/p&gt;&lt;p style=&quot;margin:0px;margin-left:4px;&quot;&gt;+ void addInquiry(Person inquirer, DisasterVictim missingPerson, String infoProvided, Location lastKnownLocation)&lt;/p&gt;&lt;p style=&quot;margin:0px;margin-left:4px;&quot;&gt;+ void addInquiry(Inquiry inquiry)&lt;/p&gt;&lt;p style=&quot;margin:0px;margin-left:4px;&quot;&gt;+ void ad&lt;font&gt;dPer&lt;font&gt;son(String firstName, String lastName, String dateOfBirth, String gender, String phoneNum)&lt;/font&gt;&lt;/font&gt;&lt;/p&gt;&lt;p style=&quot;margin:0px;margin-left:4px;&quot;&gt;&lt;font&gt;&lt;font&gt;+ void addPerson(Person person)&lt;/font&gt;&lt;/font&gt;&lt;/p&gt;&lt;p style=&quot;margin:0px;margin-left:4px;&quot;&gt;+ void addLocation(String name, String address)&lt;/p&gt;&lt;p style=&quot;margin:0px;margin-left:4px;&quot;&gt;+ void addLocation(Location location)&lt;/p&gt;&lt;p style=&quot;margin:0px;margin-left:4px;&quot;&gt;+ Location[] getLocations()&lt;/p&gt;&lt;p style=&quot;margin:0px;margin-left:4px;&quot;&gt;+ Person[] getPeople()&lt;/p&gt;&lt;p style=&quot;margin:0px;margin-left:4px;&quot;&gt;+ Inquiry[] getInquiries()&lt;/p&gt;&lt;p style=&quot;margin:0px;margin-left:4px;&quot;&gt;+ Person fetchPerson(String firstName, String lastName)&lt;/p&gt;&lt;p style=&quot;margin:0px;margin-left:4px;&quot;&gt;+ Inquiry fetchInquiry(Person Inquirer, DisasterVictim victim, String date)&lt;/p&gt;&lt;p style=&quot;margin:0px;margin-left:4px;&quot;&gt;+ Location fetchLocation(String name)&lt;/p&gt;&lt;p style=&quot;margin:0px;margin-left:4px;&quot;&gt;+ Person fetchPerson(int id)&lt;/p&gt;&lt;p style=&quot;margin:0px;margin-left:4px;&quot;&gt;+ Location fetchLocation(int id)&lt;/p&gt;&lt;p style=&quot;margin:0px;margin-left:4px;&quot;&gt;+ fetchInquiry(int id)&lt;/p&gt;&lt;p style=&quot;margin:0px;margin-left:4px;&quot;&gt;+ fetchFamilyGroup(int id)&lt;/p&gt;&lt;p style=&quot;margin:0px;margin-left:4px;&quot;&gt;+ void saveDataValues()&lt;/p&gt;&lt;p style=&quot;margin:0px;margin-left:4px;&quot;&gt;+ void loadInquiries()&lt;/p&gt;&lt;p style=&quot;margin:0px;margin-left:4px;&quot;&gt;+ void loadPeople()&lt;/p&gt;&lt;p style=&quot;margin:0px;margin-left:4px;&quot;&gt;+ void loadLocation()&lt;/p&gt;&lt;p style=&quot;margin:0px;margin-left:4px;&quot;&gt;&lt;br&gt;&lt;/p&gt;" style="verticalAlign=top;align=left;overflow=fill;html=1;whiteSpace=wrap;" parent="1" vertex="1">
                    <mxGeometry x="-1010" y="600" width="340" height="630" as="geometry"/>
                </mxCell>
                <mxCell id="132" value="&lt;p style=&quot;margin:0px;margin-top:4px;text-align:center;&quot;&gt;&lt;b&gt;&lt;font&gt;ErrorLogger&lt;/font&gt;&lt;/b&gt;&lt;/p&gt;&lt;hr size=&quot;1&quot; style=&quot;border-style:solid;&quot;&gt;&lt;p style=&quot;margin:0px;margin-left:4px;&quot;&gt;&lt;font&gt;- logF&lt;font&gt;ile: FIle&lt;/font&gt;&lt;/font&gt;&lt;/p&gt;&lt;p style=&quot;margin:0px;margin-left:4px;&quot;&gt;&lt;font&gt;&lt;font&gt;- filePath String&lt;/font&gt;&lt;/font&gt;&lt;span style=&quot;background-color: transparent;&quot;&gt;&amp;nbsp;&lt;/span&gt;&lt;/p&gt;&lt;hr size=&quot;1&quot; style=&quot;border-style:solid;&quot;&gt;&lt;p style=&quot;margin:0px;margin-left:4px;&quot;&gt;&lt;font&gt;+ ErrorLogger(String filepath)&lt;/font&gt;&lt;/p&gt;&lt;p style=&quot;margin:0px;margin-left:4px;&quot;&gt;&lt;font&gt;+ void logError(Exception error)&lt;/font&gt;&lt;/p&gt;" style="verticalAlign=top;align=left;overflow=fill;html=1;whiteSpace=wrap;" parent="1" vertex="1">
                    <mxGeometry x="-650" y="980" width="190" height="110" as="geometry"/>
                </mxCell>
                <mxCell id="136" value="Person" style="swimlane;fontStyle=1;align=center;verticalAlign=top;childLayout=stackLayout;horizontal=1;startSize=26;horizontalStack=0;resizeParent=1;resizeParentMax=0;resizeLast=0;collapsible=1;marginBottom=0;whiteSpace=wrap;html=1;" parent="1" vertex="1">
                    <mxGeometry x="225" y="170" width="160" height="34" as="geometry"/>
                </mxCell>
                <mxCell id="138" value="" style="line;strokeWidth=1;fillColor=none;align=left;verticalAlign=middle;spacingTop=-1;spacingLeft=3;spacingRight=3;rotatable=0;labelPosition=right;points=[];portConstraint=eastwest;strokeColor=inherit;" parent="136" vertex="1">
                    <mxGeometry y="26" width="160" height="8" as="geometry"/>
                </mxCell>
                <mxCell id="140" value="PersonalBelonging" style="swimlane;fontStyle=1;align=center;verticalAlign=top;childLayout=stackLayout;horizontal=1;startSize=26;horizontalStack=0;resizeParent=1;resizeParentMax=0;resizeLast=0;collapsible=1;marginBottom=0;whiteSpace=wrap;html=1;" parent="1" vertex="1">
                    <mxGeometry x="395" y="630" width="160" height="34" as="geometry"/>
                </mxCell>
                <mxCell id="142" value="" style="line;strokeWidth=1;fillColor=none;align=left;verticalAlign=middle;spacingTop=-1;spacingLeft=3;spacingRight=3;rotatable=0;labelPosition=right;points=[];portConstraint=eastwest;strokeColor=inherit;" parent="140" vertex="1">
                    <mxGeometry y="26" width="160" height="8" as="geometry"/>
                </mxCell>
                <mxCell id="145" value="Cot&lt;div&gt;&lt;br&gt;&lt;/div&gt;" style="swimlane;fontStyle=1;align=center;verticalAlign=top;childLayout=stackLayout;horizontal=1;startSize=26;horizontalStack=0;resizeParent=1;resizeParentMax=0;resizeLast=0;collapsible=1;marginBottom=0;whiteSpace=wrap;html=1;" parent="1" vertex="1">
                    <mxGeometry x="215" y="630" width="160" height="34" as="geometry">
                        <mxRectangle x="40" y="640" width="60" height="40" as="alternateBounds"/>
                    </mxGeometry>
                </mxCell>
                <mxCell id="147" value="" style="line;strokeWidth=1;fillColor=none;align=left;verticalAlign=middle;spacingTop=-1;spacingLeft=3;spacingRight=3;rotatable=0;labelPosition=right;points=[];portConstraint=eastwest;strokeColor=inherit;" parent="145" vertex="1">
                    <mxGeometry y="26" width="160" height="8" as="geometry"/>
                </mxCell>
                <mxCell id="149" value="Water" style="swimlane;fontStyle=1;align=center;verticalAlign=top;childLayout=stackLayout;horizontal=1;startSize=26;horizontalStack=0;resizeParent=1;resizeParentMax=0;resizeLast=0;collapsible=1;marginBottom=0;whiteSpace=wrap;html=1;" parent="1" vertex="1">
                    <mxGeometry x="35" y="630" width="160" height="34" as="geometry"/>
                </mxCell>
                <mxCell id="151" value="" style="line;strokeWidth=1;fillColor=none;align=left;verticalAlign=middle;spacingTop=-1;spacingLeft=3;spacingRight=3;rotatable=0;labelPosition=right;points=[];portConstraint=eastwest;strokeColor=inherit;" parent="149" vertex="1">
                    <mxGeometry y="26" width="160" height="8" as="geometry"/>
                </mxCell>
                <mxCell id="153" value="Supply" style="swimlane;fontStyle=1;align=center;verticalAlign=top;childLayout=stackLayout;horizontal=1;startSize=26;horizontalStack=0;resizeParent=1;resizeParentMax=0;resizeLast=0;collapsible=1;marginBottom=0;whiteSpace=wrap;html=1;" parent="1" vertex="1">
                    <mxGeometry x="215" y="540" width="160" height="34" as="geometry"/>
                </mxCell>
                <mxCell id="155" value="" style="line;strokeWidth=1;fillColor=none;align=left;verticalAlign=middle;spacingTop=-1;spacingLeft=3;spacingRight=3;rotatable=0;labelPosition=right;points=[];portConstraint=eastwest;strokeColor=inherit;" parent="153" vertex="1">
                    <mxGeometry y="26" width="160" height="8" as="geometry"/>
                </mxCell>
                <mxCell id="157" value="ReliefController" style="swimlane;fontStyle=1;align=center;verticalAlign=top;childLayout=stackLayout;horizontal=1;startSize=26;horizontalStack=0;resizeParent=1;resizeParentMax=0;resizeLast=0;collapsible=1;marginBottom=0;whiteSpace=wrap;html=1;" parent="1" vertex="1">
                    <mxGeometry x="-10" y="468" width="160" height="34" as="geometry"/>
                </mxCell>
                <mxCell id="159" value="" style="line;strokeWidth=1;fillColor=none;align=left;verticalAlign=middle;spacingTop=-1;spacingLeft=3;spacingRight=3;rotatable=0;labelPosition=right;points=[];portConstraint=eastwest;strokeColor=inherit;" parent="157" vertex="1">
                    <mxGeometry y="26" width="160" height="8" as="geometry"/>
                </mxCell>
                <mxCell id="165" value="ErrorLogger" style="swimlane;fontStyle=1;align=center;verticalAlign=top;childLayout=stackLayout;horizontal=1;startSize=26;horizontalStack=0;resizeParent=1;resizeParentMax=0;resizeLast=0;collapsible=1;marginBottom=0;whiteSpace=wrap;html=1;" parent="1" vertex="1">
                    <mxGeometry x="-125" y="238" width="160" height="34" as="geometry"/>
                </mxCell>
                <mxCell id="167" value="" style="line;strokeWidth=1;fillColor=none;align=left;verticalAlign=middle;spacingTop=-1;spacingLeft=3;spacingRight=3;rotatable=0;labelPosition=right;points=[];portConstraint=eastwest;strokeColor=inherit;" parent="165" vertex="1">
                    <mxGeometry y="26" width="160" height="8" as="geometry"/>
                </mxCell>
                <mxCell id="170" value="0..*" style="text;html=1;align=center;verticalAlign=middle;resizable=0;points=[];autosize=1;strokeColor=none;fillColor=none;" parent="1" vertex="1">
                    <mxGeometry x="715" y="606" width="40" height="30" as="geometry"/>
                </mxCell>
                <mxCell id="171" value="1" style="text;html=1;align=center;verticalAlign=middle;resizable=0;points=[];autosize=1;strokeColor=none;fillColor=none;" parent="1" vertex="1">
                    <mxGeometry x="615" y="364" width="30" height="30" as="geometry"/>
                </mxCell>
                <mxCell id="172" value="0..*" style="text;html=1;align=center;verticalAlign=middle;resizable=0;points=[];autosize=1;strokeColor=none;fillColor=none;" parent="1" vertex="1">
                    <mxGeometry x="625" y="600" width="40" height="30" as="geometry"/>
                </mxCell>
                <mxCell id="173" value="1" style="text;html=1;align=center;verticalAlign=middle;resizable=0;points=[];autosize=1;strokeColor=none;fillColor=none;" parent="1" vertex="1">
                    <mxGeometry x="375" y="474" width="30" height="30" as="geometry"/>
                </mxCell>
                <mxCell id="174" value="0..*" style="text;html=1;align=center;verticalAlign=middle;resizable=0;points=[];autosize=1;strokeColor=none;fillColor=none;" parent="1" vertex="1">
                    <mxGeometry x="605" y="198" width="40" height="30" as="geometry"/>
                </mxCell>
                <mxCell id="175" value="1" style="text;html=1;align=center;verticalAlign=middle;resizable=0;points=[];autosize=1;strokeColor=none;fillColor=none;" parent="1" vertex="1">
                    <mxGeometry x="610" y="298" width="30" height="30" as="geometry"/>
                </mxCell>
                <mxCell id="176" value="0..*" style="text;html=1;align=center;verticalAlign=middle;resizable=0;points=[];autosize=1;strokeColor=none;fillColor=none;" parent="1" vertex="1">
                    <mxGeometry x="365" y="418" width="40" height="30" as="geometry"/>
                </mxCell>
                <mxCell id="177" value="1" style="text;html=1;align=center;verticalAlign=middle;resizable=0;points=[];autosize=1;strokeColor=none;fillColor=none;" parent="1" vertex="1">
                    <mxGeometry x="520" y="348" width="30" height="30" as="geometry"/>
                </mxCell>
                <mxCell id="178" value="0..*" style="text;html=1;align=center;verticalAlign=middle;resizable=0;points=[];autosize=1;strokeColor=none;fillColor=none;" parent="1" vertex="1">
                    <mxGeometry x="375" y="518" width="40" height="30" as="geometry"/>
                </mxCell>
                <mxCell id="180" value="1" style="text;html=1;align=center;verticalAlign=middle;resizable=0;points=[];autosize=1;strokeColor=none;fillColor=none;" parent="1" vertex="1">
                    <mxGeometry x="555" y="388" width="30" height="30" as="geometry"/>
                </mxCell>
                <mxCell id="181" value="0..*" style="text;html=1;align=center;verticalAlign=middle;resizable=0;points=[];autosize=1;strokeColor=none;fillColor=none;" parent="1" vertex="1">
                    <mxGeometry x="281" y="515" width="40" height="30" as="geometry"/>
                </mxCell>
                <mxCell id="182" value="1" style="text;html=1;align=center;verticalAlign=middle;resizable=0;points=[];autosize=1;strokeColor=none;fillColor=none;" parent="1" vertex="1">
                    <mxGeometry x="280" y="474" width="30" height="30" as="geometry"/>
                </mxCell>
                <mxCell id="183" value="0..*" style="text;html=1;align=center;verticalAlign=middle;resizable=0;points=[];autosize=1;strokeColor=none;fillColor=none;" parent="1" vertex="1">
                    <mxGeometry x="530" y="300" width="40" height="30" as="geometry"/>
                </mxCell>
                <mxCell id="184" value="1" style="text;html=1;align=center;verticalAlign=middle;resizable=0;points=[];autosize=1;strokeColor=none;fillColor=none;" parent="1" vertex="1">
                    <mxGeometry x="150" y="456" width="30" height="30" as="geometry"/>
                </mxCell>
                <mxCell id="185" value="0..*" style="text;html=1;align=center;verticalAlign=middle;resizable=0;points=[];autosize=1;strokeColor=none;fillColor=none;" parent="1" vertex="1">
                    <mxGeometry x="535" y="204" width="40" height="30" as="geometry"/>
                </mxCell>
                <mxCell id="186" value="1" style="text;html=1;align=center;verticalAlign=middle;resizable=0;points=[];autosize=1;strokeColor=none;fillColor=none;" parent="1" vertex="1">
                    <mxGeometry x="115" y="418" width="30" height="30" as="geometry"/>
                </mxCell>
                <mxCell id="187" value="0..*" style="text;html=1;align=center;verticalAlign=middle;resizable=0;points=[];autosize=1;strokeColor=none;fillColor=none;" parent="1" vertex="1">
                    <mxGeometry x="233" y="208" width="40" height="30" as="geometry"/>
                </mxCell>
                <mxCell id="188" value="1" style="text;html=1;align=center;verticalAlign=middle;resizable=0;points=[];autosize=1;strokeColor=none;fillColor=none;" parent="1" vertex="1">
                    <mxGeometry x="65" y="418" width="30" height="30" as="geometry"/>
                </mxCell>
                <mxCell id="189" value="1" style="text;html=1;align=center;verticalAlign=middle;resizable=0;points=[];autosize=1;strokeColor=none;fillColor=none;" parent="1" vertex="1">
                    <mxGeometry x="-75" y="380" width="30" height="30" as="geometry"/>
                </mxCell>
                <mxCell id="190" value="1" style="text;html=1;align=center;verticalAlign=middle;resizable=0;points=[];autosize=1;strokeColor=none;fillColor=none;" parent="1" vertex="1">
                    <mxGeometry x="-24" y="436" width="30" height="30" as="geometry"/>
                </mxCell>
                <mxCell id="191" value="1" style="text;html=1;align=center;verticalAlign=middle;resizable=0;points=[];autosize=1;strokeColor=none;fillColor=none;" parent="1" vertex="1">
                    <mxGeometry x="-75" y="320" width="30" height="30" as="geometry"/>
                </mxCell>
                <mxCell id="192" value="1" style="text;html=1;align=center;verticalAlign=middle;resizable=0;points=[];autosize=1;strokeColor=none;fillColor=none;" parent="1" vertex="1">
                    <mxGeometry x="-40" y="270" width="30" height="30" as="geometry"/>
                </mxCell>
                <mxCell id="193" value="1" style="text;html=1;align=center;verticalAlign=middle;resizable=0;points=[];autosize=1;strokeColor=none;fillColor=none;" parent="1" vertex="1">
                    <mxGeometry x="145" y="146" width="30" height="30" as="geometry"/>
                </mxCell>
                <mxCell id="194" value="1..*" style="text;html=1;align=center;verticalAlign=middle;resizable=0;points=[];autosize=1;strokeColor=none;fillColor=none;" parent="1" vertex="1">
                    <mxGeometry x="195" y="154" width="40" height="30" as="geometry"/>
                </mxCell>
                <mxCell id="195" value="&amp;lt;&amp;lt;throws&amp;gt;&amp;gt;" style="endArrow=open;endSize=12;dashed=1;html=1;exitX=0.991;exitY=0.393;exitDx=0;exitDy=0;entryX=0;entryY=0;entryDx=0;entryDy=0;exitPerimeter=0;" parent="1" source="99" target="101" edge="1">
                    <mxGeometry width="160" relative="1" as="geometry">
                        <mxPoint x="1137" y="349" as="sourcePoint"/>
                        <mxPoint x="1250" y="247" as="targetPoint"/>
                    </mxGeometry>
                </mxCell>
                <mxCell id="197" value="&amp;lt;&amp;lt;throws&amp;gt;&amp;gt;" style="endArrow=open;endSize=12;dashed=1;html=1;exitX=0;exitY=0.5;exitDx=0;exitDy=0;entryX=1;entryY=1;entryDx=0;entryDy=0;" parent="1" source="129" target="232" edge="1">
                    <mxGeometry width="160" relative="1" as="geometry">
                        <mxPoint x="-690" y="488.57" as="sourcePoint"/>
                        <mxPoint x="-760" y="510" as="targetPoint"/>
                    </mxGeometry>
                </mxCell>
                <mxCell id="198" value="&amp;lt;&amp;lt;throws&amp;gt;&amp;gt;" style="endArrow=open;endSize=12;dashed=1;html=1;exitX=-0.01;exitY=0.813;exitDx=0;exitDy=0;exitPerimeter=0;entryX=0.75;entryY=1;entryDx=0;entryDy=0;" parent="1" source="129" target="232" edge="1">
                    <mxGeometry width="160" relative="1" as="geometry">
                        <mxPoint x="-638" y="520" as="sourcePoint"/>
                        <mxPoint x="-750" y="553" as="targetPoint"/>
                    </mxGeometry>
                </mxCell>
                <mxCell id="199" value="UserInterface" style="swimlane;fontStyle=1;align=center;verticalAlign=top;childLayout=stackLayout;horizontal=1;startSize=26;horizontalStack=0;resizeParent=1;resizeParentMax=0;resizeLast=0;collapsible=1;marginBottom=0;whiteSpace=wrap;html=1;" parent="1" vertex="1">
                    <mxGeometry x="-165" y="346" width="160" height="34" as="geometry"/>
                </mxCell>
                <mxCell id="201" value="" style="line;strokeWidth=1;fillColor=none;align=left;verticalAlign=middle;spacingTop=-1;spacingLeft=3;spacingRight=3;rotatable=0;labelPosition=right;points=[];portConstraint=eastwest;strokeColor=inherit;" parent="199" vertex="1">
                    <mxGeometry y="26" width="160" height="8" as="geometry"/>
                </mxCell>
                <mxCell id="208" value="TextInputValidator" style="swimlane;fontStyle=1;align=center;verticalAlign=top;childLayout=stackLayout;horizontal=1;startSize=26;horizontalStack=0;resizeParent=1;resizeParentMax=0;resizeLast=0;collapsible=1;marginBottom=0;whiteSpace=wrap;html=1;" parent="1" vertex="1">
                    <mxGeometry x="-197.5" y="472" width="160" height="34" as="geometry"/>
                </mxCell>
                <mxCell id="210" value="" style="line;strokeWidth=1;fillColor=none;align=left;verticalAlign=middle;spacingTop=-1;spacingLeft=3;spacingRight=3;rotatable=0;labelPosition=right;points=[];portConstraint=eastwest;strokeColor=inherit;" parent="208" vertex="1">
                    <mxGeometry y="26" width="160" height="8" as="geometry"/>
                </mxCell>
                <mxCell id="213" value="1" style="text;html=1;align=center;verticalAlign=middle;resizable=0;points=[];autosize=1;strokeColor=none;fillColor=none;" parent="1" vertex="1">
                    <mxGeometry x="-145" y="444" width="30" height="30" as="geometry"/>
                </mxCell>
                <mxCell id="214" value="1" style="text;html=1;align=center;verticalAlign=middle;resizable=0;points=[];autosize=1;strokeColor=none;fillColor=none;" parent="1" vertex="1">
                    <mxGeometry x="-150" y="385" width="30" height="30" as="geometry"/>
                </mxCell>
                <mxCell id="215" value="&lt;p style=&quot;margin:0px;margin-top:4px;text-align:center;&quot;&gt;&lt;b&gt;TextInputValidator&lt;/b&gt;&lt;/p&gt;&lt;hr size=&quot;1&quot; style=&quot;border-style:solid;&quot;&gt;&lt;p style=&quot;margin:0px;margin-left:4px;&quot;&gt;&lt;span style=&quot;background-color: transparent;&quot;&gt;- FileInputStream languageFile&lt;/span&gt;&lt;/p&gt;&lt;p style=&quot;margin:0px;margin-left:4px;&quot;&gt;&lt;span style=&quot;background-color: transparent;&quot;&gt;- String languageFilePath&lt;/span&gt;&lt;/p&gt;&lt;hr size=&quot;1&quot; style=&quot;border-style:solid;&quot;&gt;&lt;p style=&quot;margin:0px;margin-left:4px;&quot;&gt;&lt;span style=&quot;background-color: transparent;&quot;&gt;+ TextInputValidator(String languageFilepath)&lt;/span&gt;&lt;/p&gt;&lt;p style=&quot;margin:0px;margin-left:4px;&quot;&gt;+ String translateToLanguage(String language)&lt;/p&gt;&lt;p style=&quot;margin:0px;margin-left:4px;&quot;&gt;+ String translateToKey(String key)&lt;/p&gt;&lt;p style=&quot;margin:0px;margin-left:4px;&quot;&gt;+ boolean isValidDate(String date)&lt;/p&gt;&lt;p style=&quot;margin:0px;margin-left:4px;&quot;&gt;+ boolean isValidQuanitty(int quantity)&lt;/p&gt;&lt;p style=&quot;margin:0px;margin-left:4px;&quot;&gt;+ boolean isValidGrid(String grid)&lt;/p&gt;&lt;p style=&quot;margin:0px;margin-left:4px;&quot;&gt;+ boolean isNumeric(String number)&lt;/p&gt;&lt;p style=&quot;margin:0px;margin-left:4px;&quot;&gt;+ boolean isValidGender(String gender)&lt;/p&gt;&lt;p style=&quot;margin:0px;margin-left:4px;&quot;&gt;+ boolean isValidPhoneNum(String num)&lt;/p&gt;" style="verticalAlign=top;align=left;overflow=fill;html=1;whiteSpace=wrap;" parent="1" vertex="1">
                    <mxGeometry x="-940" y="104" width="250" height="218" as="geometry"/>
                </mxCell>
                <mxCell id="216" value="&amp;lt;&amp;lt;uses&amp;gt;&amp;gt;" style="endArrow=open;startArrow=none;endFill=0;startFill=0;endSize=8;html=1;verticalAlign=bottom;dashed=1;labelBackgroundColor=none;exitX=1;exitY=0.25;exitDx=0;exitDy=0;entryX=0;entryY=0.75;entryDx=0;entryDy=0;" parent="1" source="199" target="136" edge="1">
                    <mxGeometry x="-0.4286" y="-10" width="160" relative="1" as="geometry">
                        <mxPoint x="25" y="354" as="sourcePoint"/>
                        <mxPoint x="25" y="280" as="targetPoint"/>
                        <mxPoint as="offset"/>
                    </mxGeometry>
                </mxCell>
                <mxCell id="217" value="1" style="text;html=1;align=center;verticalAlign=middle;resizable=0;points=[];autosize=1;strokeColor=none;fillColor=none;" parent="1" vertex="1">
                    <mxGeometry x="-5" y="340" width="30" height="30" as="geometry"/>
                </mxCell>
                <mxCell id="218" value="0..*" style="text;html=1;align=center;verticalAlign=middle;resizable=0;points=[];autosize=1;strokeColor=none;fillColor=none;" parent="1" vertex="1">
                    <mxGeometry x="167" y="198" width="40" height="30" as="geometry"/>
                </mxCell>
                <mxCell id="219" value="&amp;lt;&amp;lt;uses&amp;gt;&amp;gt;" style="endArrow=open;startArrow=none;endFill=0;startFill=0;endSize=8;html=1;verticalAlign=bottom;dashed=1;labelBackgroundColor=none;exitX=0;exitY=1;exitDx=0;exitDy=0;entryX=0.672;entryY=0.956;entryDx=0;entryDy=0;entryPerimeter=0;" parent="1" source="199" target="18" edge="1">
                    <mxGeometry x="0.3819" width="160" relative="1" as="geometry">
                        <mxPoint x="-55" y="388" as="sourcePoint"/>
                        <mxPoint x="-70" y="540" as="targetPoint"/>
                        <Array as="points">
                            <mxPoint x="-250" y="378"/>
                            <mxPoint x="-250" y="770"/>
                            <mxPoint x="753" y="770"/>
                        </Array>
                        <mxPoint x="-1" as="offset"/>
                    </mxGeometry>
                </mxCell>
                <mxCell id="220" value="0..*" style="text;html=1;align=center;verticalAlign=middle;resizable=0;points=[];autosize=1;strokeColor=none;fillColor=none;" parent="1" vertex="1">
                    <mxGeometry x="760" y="671" width="40" height="30" as="geometry"/>
                </mxCell>
                <mxCell id="221" value="1" style="text;html=1;align=center;verticalAlign=middle;resizable=0;points=[];autosize=1;strokeColor=none;fillColor=none;" parent="1" vertex="1">
                    <mxGeometry x="-205" y="370" width="30" height="30" as="geometry"/>
                </mxCell>
                <mxCell id="222" value="&amp;lt;&amp;lt;uses&amp;gt;&amp;gt;" style="endArrow=open;startArrow=none;endFill=0;startFill=0;endSize=8;html=1;verticalAlign=bottom;dashed=1;labelBackgroundColor=none;exitX=0;exitY=0;exitDx=0;exitDy=0;entryX=1;entryY=0;entryDx=0;entryDy=0;" parent="1" source="199" target="32" edge="1">
                    <mxGeometry x="-0.1604" y="-15" width="160" relative="1" as="geometry">
                        <mxPoint x="65" y="363" as="sourcePoint"/>
                        <mxPoint x="235" y="206" as="targetPoint"/>
                        <Array as="points">
                            <mxPoint x="-165" y="120"/>
                            <mxPoint x="770" y="120"/>
                            <mxPoint x="770" y="330"/>
                        </Array>
                        <mxPoint as="offset"/>
                    </mxGeometry>
                </mxCell>
                <mxCell id="223" value="0..*" style="text;html=1;align=center;verticalAlign=middle;resizable=0;points=[];autosize=1;strokeColor=none;fillColor=none;" parent="1" vertex="1">
                    <mxGeometry x="730" y="300" width="40" height="30" as="geometry"/>
                </mxCell>
                <mxCell id="224" value="1" style="text;html=1;align=center;verticalAlign=middle;resizable=0;points=[];autosize=1;strokeColor=none;fillColor=none;" parent="1" vertex="1">
                    <mxGeometry x="-175" y="316" width="30" height="30" as="geometry"/>
                </mxCell>
                <mxCell id="225" value="&amp;lt;&amp;lt;uses&amp;gt;&amp;gt;" style="endArrow=open;endSize=12;dashed=1;html=1;entryX=0.5;entryY=1;entryDx=0;entryDy=0;" parent="1" target="16" edge="1">
                    <mxGeometry x="-0.359" y="-3" width="160" relative="1" as="geometry">
                        <mxPoint x="10" y="500" as="sourcePoint"/>
                        <mxPoint x="225" y="550" as="targetPoint"/>
                        <Array as="points">
                            <mxPoint x="10" y="710"/>
                            <mxPoint x="725" y="710"/>
                        </Array>
                        <mxPoint as="offset"/>
                    </mxGeometry>
                </mxCell>
                <mxCell id="226" value="&amp;lt;&amp;lt;uses&amp;gt;&amp;gt;" style="endArrow=open;endSize=12;dashed=1;html=1;exitX=0;exitY=1;exitDx=0;exitDy=0;entryX=0.5;entryY=0;entryDx=0;entryDy=0;" parent="1" source="157" target="379" edge="1">
                    <mxGeometry x="0.1576" y="-1" width="160" relative="1" as="geometry">
                        <mxPoint x="120" y="512" as="sourcePoint"/>
                        <mxPoint x="-105" y="600" as="targetPoint"/>
                        <Array as="points"/>
                        <mxPoint as="offset"/>
                    </mxGeometry>
                </mxCell>
                <mxCell id="227" value="1" style="text;html=1;align=center;verticalAlign=middle;resizable=0;points=[];autosize=1;strokeColor=none;fillColor=none;" parent="1" vertex="1">
                    <mxGeometry x="6" y="505" width="30" height="30" as="geometry"/>
                </mxCell>
                <mxCell id="228" value="0..*" style="text;html=1;align=center;verticalAlign=middle;resizable=0;points=[];autosize=1;strokeColor=none;fillColor=none;" parent="1" vertex="1">
                    <mxGeometry x="675" y="680" width="40" height="30" as="geometry"/>
                </mxCell>
                <mxCell id="231" value="&amp;lt;&amp;lt;uses&amp;gt;&amp;gt;" style="endArrow=open;startArrow=none;endFill=0;startFill=0;endSize=8;html=1;verticalAlign=bottom;dashed=1;labelBackgroundColor=none;exitX=1.027;exitY=-0.135;exitDx=0;exitDy=0;exitPerimeter=0;entryX=0.5;entryY=0;entryDx=0;entryDy=0;" parent="1" source="214" target="208" edge="1">
                    <mxGeometry width="160" relative="1" as="geometry">
                        <mxPoint x="-3" y="390" as="sourcePoint"/>
                        <mxPoint y="478" as="targetPoint"/>
                    </mxGeometry>
                </mxCell>
                <mxCell id="232" value="&lt;p style=&quot;margin:0px;margin-top:4px;text-align:center;&quot;&gt;&lt;b&gt;IllegalArgumentException&lt;/b&gt;&lt;/p&gt;" style="verticalAlign=top;align=left;overflow=fill;html=1;whiteSpace=wrap;" parent="1" vertex="1">
                    <mxGeometry x="-940" y="397" width="190" height="29" as="geometry"/>
                </mxCell>
                <mxCell id="241" value="&amp;lt;&amp;lt;throws&amp;gt;&amp;gt;" style="endArrow=open;endSize=12;dashed=1;html=1;entryX=0.598;entryY=0.994;entryDx=0;entryDy=0;exitX=-0.003;exitY=0.674;exitDx=0;exitDy=0;entryPerimeter=0;exitPerimeter=0;" parent="1" source="122" target="109" edge="1">
                    <mxGeometry x="-0.0061" width="160" relative="1" as="geometry">
                        <mxPoint x="1518" y="1139" as="sourcePoint"/>
                        <mxPoint x="1383" y="795" as="targetPoint"/>
                        <Array as="points">
                            <mxPoint x="1390" y="1000"/>
                        </Array>
                        <mxPoint as="offset"/>
                    </mxGeometry>
                </mxCell>
                <mxCell id="245" value="DbConnector" style="swimlane;fontStyle=1;align=center;verticalAlign=top;childLayout=stackLayout;horizontal=1;startSize=26;horizontalStack=0;resizeParent=1;resizeParentMax=0;resizeLast=0;collapsible=1;marginBottom=0;whiteSpace=wrap;html=1;" parent="1" vertex="1">
                    <mxGeometry x="159.25" y="861" width="160" height="34" as="geometry"/>
                </mxCell>
                <mxCell id="247" value="" style="line;strokeWidth=1;fillColor=none;align=left;verticalAlign=middle;spacingTop=-1;spacingLeft=3;spacingRight=3;rotatable=0;labelPosition=right;points=[];portConstraint=eastwest;strokeColor=inherit;" parent="245" vertex="1">
                    <mxGeometry y="26" width="160" height="8" as="geometry"/>
                </mxCell>
                <mxCell id="251" value="1" style="text;html=1;align=center;verticalAlign=middle;resizable=0;points=[];autosize=1;strokeColor=none;fillColor=none;" parent="1" vertex="1">
                    <mxGeometry x="-35" y="508" width="30" height="30" as="geometry"/>
                </mxCell>
                <mxCell id="252" value="&lt;p style=&quot;margin:0px;margin-top:4px;text-align:center;&quot;&gt;&lt;i&gt;&amp;lt;&amp;lt;Interface&amp;gt;&amp;gt;&lt;/i&gt;&lt;br&gt;&lt;b&gt;DatabaseQueryHandler&lt;/b&gt;&lt;/p&gt;&lt;p style=&quot;margin:0px;margin-left:4px;&quot;&gt;&lt;br&gt;&lt;/p&gt;&lt;hr size=&quot;1&quot; style=&quot;border-style:solid;&quot;&gt;&lt;p style=&quot;margin:0px;margin-left:4px;&quot;&gt;&lt;u&gt;+ DatabaseQueryHandler getInstance();&lt;/u&gt;&lt;/p&gt;&lt;p style=&quot;margin:0px;margin-left:4px;&quot;&gt;+ String returnQuery(String query, String[] data, String[] types)&lt;/p&gt;&lt;p style=&quot;margin:0px;margin-left:4px;&quot;&gt;+ void deadEndQuery(String Query, String[] data, String[] types)&lt;/p&gt;" style="verticalAlign=top;align=left;overflow=fill;html=1;whiteSpace=wrap;" parent="1" vertex="1">
                    <mxGeometry x="-73.25" y="815" width="212.5" height="150" as="geometry"/>
                </mxCell>
                <mxCell id="253" value="" style="endArrow=block;dashed=1;endFill=0;endSize=12;html=1;entryX=0.991;entryY=0.558;entryDx=0;entryDy=0;entryPerimeter=0;" parent="1" target="252" edge="1">
                    <mxGeometry width="160" relative="1" as="geometry">
                        <mxPoint x="159.25" y="875" as="sourcePoint"/>
                        <mxPoint x="219.25" y="595" as="targetPoint"/>
                    </mxGeometry>
                </mxCell>
                <mxCell id="254" value="MockDatabase" style="swimlane;fontStyle=1;align=center;verticalAlign=top;childLayout=stackLayout;horizontal=1;startSize=26;horizontalStack=0;resizeParent=1;resizeParentMax=0;resizeLast=0;collapsible=1;marginBottom=0;whiteSpace=wrap;html=1;" parent="1" vertex="1">
                    <mxGeometry x="182.25" y="795" width="160" height="34" as="geometry"/>
                </mxCell>
                <mxCell id="256" value="" style="line;strokeWidth=1;fillColor=none;align=left;verticalAlign=middle;spacingTop=-1;spacingLeft=3;spacingRight=3;rotatable=0;labelPosition=right;points=[];portConstraint=eastwest;strokeColor=inherit;" parent="254" vertex="1">
                    <mxGeometry y="26" width="160" height="8" as="geometry"/>
                </mxCell>
                <mxCell id="258" value="" style="endArrow=block;dashed=1;endFill=0;endSize=12;html=1;exitX=0;exitY=0.5;exitDx=0;exitDy=0;entryX=1;entryY=0;entryDx=0;entryDy=0;" parent="1" source="254" target="252" edge="1">
                    <mxGeometry width="160" relative="1" as="geometry">
                        <mxPoint x="59.25" y="595" as="sourcePoint"/>
                        <mxPoint x="219.25" y="595" as="targetPoint"/>
                    </mxGeometry>
                </mxCell>
                <mxCell id="260" value="&lt;p style=&quot;margin:0px;margin-top:4px;text-align:center;&quot;&gt;&lt;b&gt;DbConnector&lt;/b&gt;&lt;/p&gt;&lt;hr size=&quot;1&quot; style=&quot;border-style:solid;&quot;&gt;&lt;p style=&quot;margin:0px;margin-left:4px;&quot;&gt;&lt;span style=&quot;background-color: transparent;&quot;&gt;- dbURL: String&lt;/span&gt;&lt;/p&gt;&lt;p style=&quot;margin:0px;margin-left:4px;&quot;&gt;- dbUName: string&lt;/p&gt;&lt;p style=&quot;margin:0px;margin-left:4px;&quot;&gt;- dbPwd: String&lt;/p&gt;&lt;p style=&quot;margin:0px;margin-left:4px;&quot;&gt;- dbConnector: Connector&lt;/p&gt;&lt;hr size=&quot;1&quot; style=&quot;border-style:solid;&quot;&gt;&lt;p style=&quot;scrollbar-color: light-dark(#e2e2e2, #4b4b4b)&lt;br/&gt;&#x9;&#x9;&#x9;&#x9;&#x9;light-dark(#fbfbfb, var(--dark-panel-color)); margin: 0px 0px 0px 4px;&quot;&gt;+ DbConnector(String url, String uname, String pwd)&lt;/p&gt;&lt;p style=&quot;scrollbar-color: light-dark(#e2e2e2, #4b4b4b)&lt;br/&gt;&#x9;&#x9;&#x9;&#x9;&#x9;light-dark(#fbfbfb, var(--dark-panel-color)); margin: 0px 0px 0px 4px;&quot;&gt;+ String returnQuery(String query, String[] data)&lt;/p&gt;&lt;p style=&quot;scrollbar-color: light-dark(#e2e2e2, #4b4b4b)&lt;br/&gt;&#x9;&#x9;&#x9;&#x9;&#x9;light-dark(#fbfbfb, var(--dark-panel-color)); margin: 0px 0px 0px 4px;&quot;&gt;+ void deadEndQuery(String Query, String[] data)&lt;/p&gt;&lt;p style=&quot;scrollbar-color: light-dark(#e2e2e2, #4b4b4b)&lt;br/&gt;&#x9;&#x9;&#x9;&#x9;&#x9;light-dark(#fbfbfb, var(--dark-panel-color)); margin: 0px 0px 0px 4px;&quot;&gt;&lt;br&gt;&lt;/p&gt;" style="verticalAlign=top;align=left;overflow=fill;html=1;whiteSpace=wrap;" parent="1" vertex="1">
                    <mxGeometry x="840" y="1300" width="300" height="160" as="geometry"/>
                </mxCell>
                <mxCell id="261" value="Database" style="swimlane;fontStyle=1;align=center;verticalAlign=top;childLayout=stackLayout;horizontal=1;startSize=26;horizontalStack=0;resizeParent=1;resizeParentMax=0;resizeLast=0;collapsible=1;marginBottom=0;whiteSpace=wrap;html=1;" parent="1" vertex="1">
                    <mxGeometry x="419.25" y="855" width="160" height="34" as="geometry"/>
                </mxCell>
                <mxCell id="263" value="" style="line;strokeWidth=1;fillColor=none;align=left;verticalAlign=middle;spacingTop=-1;spacingLeft=3;spacingRight=3;rotatable=0;labelPosition=right;points=[];portConstraint=eastwest;strokeColor=inherit;" parent="261" vertex="1">
                    <mxGeometry y="26" width="160" height="8" as="geometry"/>
                </mxCell>
                <mxCell id="265" value="&amp;lt;&amp;lt;uses&amp;gt;&amp;gt;" style="endArrow=open;startArrow=none;endFill=0;startFill=0;endSize=8;html=1;verticalAlign=bottom;dashed=1;labelBackgroundColor=none;exitX=1;exitY=0.5;exitDx=0;exitDy=0;entryX=0;entryY=0.75;entryDx=0;entryDy=0;" parent="1" source="245" target="261" edge="1">
                    <mxGeometry width="160" relative="1" as="geometry">
                        <mxPoint x="111.25" y="590.5" as="sourcePoint"/>
                        <mxPoint x="114.25" y="678.5" as="targetPoint"/>
                    </mxGeometry>
                </mxCell>
                <mxCell id="266" value="&amp;lt;&amp;lt;throws&amp;gt;&amp;gt;" style="endArrow=open;endSize=12;dashed=1;html=1;entryX=0.847;entryY=0.966;entryDx=0;entryDy=0;exitX=0.003;exitY=0.436;exitDx=0;exitDy=0;exitPerimeter=0;entryPerimeter=0;" parent="1" source="122" target="109" edge="1">
                    <mxGeometry x="-0.0061" width="160" relative="1" as="geometry">
                        <mxPoint x="1517" y="1030" as="sourcePoint"/>
                        <mxPoint x="1430" y="795" as="targetPoint"/>
                        <Array as="points">
                            <mxPoint x="1450" y="930"/>
                        </Array>
                        <mxPoint as="offset"/>
                    </mxGeometry>
                </mxCell>
                <mxCell id="267" value="&amp;lt;&amp;lt;throws&amp;gt;&amp;gt;" style="endArrow=open;endSize=12;dashed=1;html=1;entryX=0.406;entryY=0.914;entryDx=0;entryDy=0;entryPerimeter=0;exitX=0;exitY=0.75;exitDx=0;exitDy=0;" parent="1" source="122" target="109" edge="1">
                    <mxGeometry x="-0.0061" width="160" relative="1" as="geometry">
                        <mxPoint x="1536" y="1310" as="sourcePoint"/>
                        <mxPoint x="1335" y="795" as="targetPoint"/>
                        <Array as="points">
                            <mxPoint x="1320" y="1060"/>
                        </Array>
                        <mxPoint as="offset"/>
                    </mxGeometry>
                </mxCell>
                <mxCell id="268" value="FamilyGroup&lt;div&gt;&lt;br&gt;&lt;/div&gt;" style="swimlane;fontStyle=1;align=center;verticalAlign=top;childLayout=stackLayout;horizontal=1;startSize=26;horizontalStack=0;resizeParent=1;resizeParentMax=0;resizeLast=0;collapsible=1;marginBottom=0;whiteSpace=wrap;html=1;" parent="1" vertex="1">
                    <mxGeometry x="-2120" y="46" width="160" height="34" as="geometry"/>
                </mxCell>
                <mxCell id="269" value="" style="line;strokeWidth=1;fillColor=none;align=left;verticalAlign=middle;spacingTop=-1;spacingLeft=3;spacingRight=3;rotatable=0;labelPosition=right;points=[];portConstraint=eastwest;strokeColor=inherit;" parent="268" vertex="1">
                    <mxGeometry y="26" width="160" height="8" as="geometry"/>
                </mxCell>
                <mxCell id="270" value="MedicalRecord" style="swimlane;fontStyle=1;align=center;verticalAlign=top;childLayout=stackLayout;horizontal=1;startSize=26;horizontalStack=0;resizeParent=1;resizeParentMax=0;resizeLast=0;collapsible=1;marginBottom=0;whiteSpace=wrap;html=1;" parent="1" vertex="1">
                    <mxGeometry x="-1460" y="656" width="160" height="34" as="geometry"/>
                </mxCell>
                <mxCell id="271" value="" style="line;strokeWidth=1;fillColor=none;align=left;verticalAlign=middle;spacingTop=-1;spacingLeft=3;spacingRight=3;rotatable=0;labelPosition=right;points=[];portConstraint=eastwest;strokeColor=inherit;" parent="270" vertex="1">
                    <mxGeometry y="26" width="160" height="8" as="geometry"/>
                </mxCell>
                <mxCell id="272" value="DisasterVictim" style="swimlane;fontStyle=1;align=center;verticalAlign=top;childLayout=stackLayout;horizontal=1;startSize=26;horizontalStack=0;resizeParent=1;resizeParentMax=0;resizeLast=0;collapsible=1;marginBottom=0;whiteSpace=wrap;html=1;" parent="1" vertex="1">
                    <mxGeometry x="-1870" y="466" width="160" height="34" as="geometry"/>
                </mxCell>
                <mxCell id="273" value="" style="line;strokeWidth=1;fillColor=none;align=left;verticalAlign=middle;spacingTop=-1;spacingLeft=3;spacingRight=3;rotatable=0;labelPosition=right;points=[];portConstraint=eastwest;strokeColor=inherit;" parent="272" vertex="1">
                    <mxGeometry y="26" width="160" height="8" as="geometry"/>
                </mxCell>
                <mxCell id="274" value="&lt;div&gt;Inquiry&lt;/div&gt;" style="swimlane;fontStyle=1;align=center;verticalAlign=top;childLayout=stackLayout;horizontal=1;startSize=26;horizontalStack=0;resizeParent=1;resizeParentMax=0;resizeLast=0;collapsible=1;marginBottom=0;whiteSpace=wrap;html=1;" parent="1" vertex="1">
                    <mxGeometry x="-1540" y="62" width="160" height="34" as="geometry"/>
                </mxCell>
                <mxCell id="275" value="" style="line;strokeWidth=1;fillColor=none;align=left;verticalAlign=middle;spacingTop=-1;spacingLeft=3;spacingRight=3;rotatable=0;labelPosition=right;points=[];portConstraint=eastwest;strokeColor=inherit;" parent="274" vertex="1">
                    <mxGeometry y="26" width="160" height="8" as="geometry"/>
                </mxCell>
                <mxCell id="276" value="Location&lt;div&gt;&lt;br&gt;&lt;/div&gt;" style="swimlane;fontStyle=1;align=center;verticalAlign=top;childLayout=stackLayout;horizontal=1;startSize=26;horizontalStack=0;resizeParent=1;resizeParentMax=0;resizeLast=0;collapsible=1;marginBottom=0;whiteSpace=wrap;html=1;" parent="1" vertex="1">
                    <mxGeometry x="-1540" y="356" width="160" height="34" as="geometry">
                        <mxRectangle x="390" y="340" width="90" height="40" as="alternateBounds"/>
                    </mxGeometry>
                </mxCell>
                <mxCell id="277" value="" style="line;strokeWidth=1;fillColor=none;align=left;verticalAlign=middle;spacingTop=-1;spacingLeft=3;spacingRight=3;rotatable=0;labelPosition=right;points=[];portConstraint=eastwest;strokeColor=inherit;" parent="276" vertex="1">
                    <mxGeometry y="26" width="160" height="8" as="geometry"/>
                </mxCell>
                <mxCell id="278" value="" style="endArrow=block;endFill=0;endSize=12;html=1;entryX=0.75;entryY=1;entryDx=0;entryDy=0;exitX=0.75;exitY=0;exitDx=0;exitDy=0;" parent="1" source="272" target="298" edge="1">
                    <mxGeometry width="160" relative="1" as="geometry">
                        <mxPoint x="-1750" y="460" as="sourcePoint"/>
                        <mxPoint x="-1791.176470588236" y="246" as="targetPoint"/>
                    </mxGeometry>
                </mxCell>
                <mxCell id="279" value="&amp;lt;&amp;lt;uses&amp;gt;&amp;gt;" style="endArrow=open;endSize=12;dashed=1;html=1;exitX=0;exitY=0.5;exitDx=0;exitDy=0;entryX=1;entryY=0.25;entryDx=0;entryDy=0;" parent="1" target="298" edge="1">
                    <mxGeometry width="160" relative="1" as="geometry">
                        <mxPoint x="-1540.0000000000005" y="71" as="sourcePoint"/>
                        <mxPoint x="-1700.0000000000005" y="14.5" as="targetPoint"/>
                    </mxGeometry>
                </mxCell>
                <mxCell id="280" value="&amp;lt;&amp;lt;uses&amp;gt;&amp;gt;" style="endArrow=open;endSize=12;dashed=1;html=1;exitX=0.5;exitY=1;exitDx=0;exitDy=0;entryX=0.5;entryY=0;entryDx=0;entryDy=0;" parent="1" source="274" target="276" edge="1">
                    <mxGeometry width="160" relative="1" as="geometry">
                        <mxPoint x="-1461.2800000000007" y="251.298" as="sourcePoint"/>
                        <mxPoint x="-1675" y="209" as="targetPoint"/>
                    </mxGeometry>
                </mxCell>
                <mxCell id="281" value="0..*" style="text;html=1;align=center;verticalAlign=middle;resizable=0;points=[];autosize=1;strokeColor=none;fillColor=none;" parent="1" vertex="1">
                    <mxGeometry x="-1710" y="46" width="40" height="30" as="geometry"/>
                </mxCell>
                <mxCell id="282" value="1" style="text;html=1;align=center;verticalAlign=middle;resizable=0;points=[];autosize=1;strokeColor=none;fillColor=none;" parent="1" vertex="1">
                    <mxGeometry x="-1570" y="46" width="30" height="30" as="geometry"/>
                </mxCell>
                <mxCell id="283" value="" style="endArrow=block;endFill=0;endSize=12;html=1;exitX=0.5;exitY=0;exitDx=0;exitDy=0;entryX=0;entryY=1;entryDx=0;entryDy=0;" parent="1" source="304" target="306" edge="1">
                    <mxGeometry width="160" relative="1" as="geometry">
                        <mxPoint x="-2057.5000000000005" y="706" as="sourcePoint"/>
                        <mxPoint x="-1919.9999999999995" y="656" as="targetPoint"/>
                    </mxGeometry>
                </mxCell>
                <mxCell id="284" value="" style="endArrow=block;endFill=0;endSize=12;html=1;exitX=0.5;exitY=0;exitDx=0;exitDy=0;entryX=0.5;entryY=1;entryDx=0;entryDy=0;" parent="1" source="302" target="306" edge="1">
                    <mxGeometry width="160" relative="1" as="geometry">
                        <mxPoint x="-1815.0000000000005" y="706" as="sourcePoint"/>
                        <mxPoint x="-1839.9999999999995" y="656" as="targetPoint"/>
                    </mxGeometry>
                </mxCell>
                <mxCell id="285" value="" style="endArrow=block;endFill=0;endSize=12;html=1;exitX=0.5;exitY=0;exitDx=0;exitDy=0;entryX=1;entryY=1;entryDx=0;entryDy=0;" parent="1" source="300" target="306" edge="1">
                    <mxGeometry width="160" relative="1" as="geometry">
                        <mxPoint x="-1585.0000000000005" y="706" as="sourcePoint"/>
                        <mxPoint x="-1799.9999999999995" y="624.5000000000002" as="targetPoint"/>
                    </mxGeometry>
                </mxCell>
                <mxCell id="286" value="" style="endArrow=diamondThin;endFill=1;endSize=24;html=1;entryX=0.25;entryY=1;entryDx=0;entryDy=0;exitX=0.438;exitY=0;exitDx=0;exitDy=0;exitPerimeter=0;" parent="1" source="306" target="272" edge="1">
                    <mxGeometry width="160" relative="1" as="geometry">
                        <mxPoint x="-1799.9999999999995" y="596" as="sourcePoint"/>
                        <mxPoint x="-1820.7200000000003" y="466.31600000000003" as="targetPoint"/>
                    </mxGeometry>
                </mxCell>
                <mxCell id="287" value="" style="endArrow=diamondThin;endFill=1;endSize=24;html=1;exitX=1;exitY=0;exitDx=0;exitDy=0;entryX=0.188;entryY=1.75;entryDx=0;entryDy=0;entryPerimeter=0;" parent="1" source="306" target="277" edge="1">
                    <mxGeometry width="160" relative="1" as="geometry">
                        <mxPoint x="-1799.9999999999995" y="627.5" as="sourcePoint"/>
                        <mxPoint x="-1520" y="396" as="targetPoint"/>
                        <Array as="points">
                            <mxPoint x="-1510" y="566"/>
                        </Array>
                    </mxGeometry>
                </mxCell>
                <mxCell id="288" value="" style="endArrow=diamondThin;endFill=0;endSize=24;html=1;exitX=1;exitY=0;exitDx=0;exitDy=0;entryX=0;entryY=1;entryDx=0;entryDy=0;" parent="1" source="272" target="276" edge="1">
                    <mxGeometry width="160" relative="1" as="geometry">
                        <mxPoint x="-1690.0000000000005" y="450" as="sourcePoint"/>
                        <mxPoint x="-1540.0000000000005" y="395" as="targetPoint"/>
                    </mxGeometry>
                </mxCell>
                <mxCell id="289" value="" style="endArrow=diamondThin;endFill=0;endSize=24;html=1;exitX=0;exitY=0;exitDx=0;exitDy=0;entryX=0.983;entryY=1.036;entryDx=0;entryDy=0;entryPerimeter=0;" parent="1" source="270" target="273" edge="1">
                    <mxGeometry width="160" relative="1" as="geometry">
                        <mxPoint x="-1890" y="556" as="sourcePoint"/>
                        <mxPoint x="-1690.0000000000005" y="449" as="targetPoint"/>
                        <Array as="points">
                            <mxPoint x="-1465" y="500"/>
                        </Array>
                    </mxGeometry>
                </mxCell>
                <mxCell id="290" value="&amp;lt;&amp;lt;uses&amp;gt;&amp;gt;" style="endArrow=open;startArrow=none;endFill=0;startFill=0;endSize=8;html=1;verticalAlign=bottom;dashed=1;labelBackgroundColor=none;exitX=0.5;exitY=0;exitDx=0;exitDy=0;" parent="1" source="270" edge="1">
                    <mxGeometry width="160" relative="1" as="geometry">
                        <mxPoint x="-1890" y="556" as="sourcePoint"/>
                        <mxPoint x="-1395" y="396" as="targetPoint"/>
                    </mxGeometry>
                </mxCell>
                <mxCell id="291" value="" style="endArrow=none;startArrow=none;endFill=0;startFill=0;endSize=8;html=1;verticalAlign=bottom;labelBackgroundColor=none;strokeWidth=1;entryX=0;entryY=0.5;entryDx=0;entryDy=0;exitX=1;exitY=0.5;exitDx=0;exitDy=0;" parent="1" source="268" target="298" edge="1">
                    <mxGeometry width="160" relative="1" as="geometry">
                        <mxPoint x="-2050" y="29" as="sourcePoint"/>
                        <mxPoint x="-1900.0000000000005" y="47" as="targetPoint"/>
                    </mxGeometry>
                </mxCell>
                <mxCell id="292" value="&amp;lt;&amp;lt;uses&amp;gt;&amp;gt;" style="endArrow=open;endSize=12;dashed=1;html=1;exitX=0.5;exitY=0;exitDx=0;exitDy=0;entryX=0.75;entryY=1;entryDx=0;entryDy=0;" parent="1" source="308" target="369" edge="1">
                    <mxGeometry x="-0.359" y="-3" width="160" relative="1" as="geometry">
                        <mxPoint x="-1404.1599999999999" y="417.43000000000006" as="sourcePoint"/>
                        <mxPoint x="-1340" y="372" as="targetPoint"/>
                        <Array as="points"/>
                        <mxPoint as="offset"/>
                    </mxGeometry>
                </mxCell>
                <mxCell id="293" value="&amp;lt;&amp;lt;uses&amp;gt;&amp;gt;" style="endArrow=open;startArrow=none;endFill=0;startFill=0;endSize=8;html=1;verticalAlign=bottom;dashed=1;labelBackgroundColor=none;exitX=0.054;exitY=0.081;exitDx=0;exitDy=0;exitPerimeter=0;entryX=0;entryY=0;entryDx=0;entryDy=0;" parent="1" source="330" target="308" edge="1">
                    <mxGeometry width="160" relative="1" as="geometry">
                        <mxPoint x="-2254.84" y="404.212" as="sourcePoint"/>
                        <mxPoint x="-2255" y="474.5" as="targetPoint"/>
                    </mxGeometry>
                </mxCell>
                <mxCell id="296" value="&amp;lt;&amp;lt;uses&amp;gt;&amp;gt;" style="endArrow=open;startArrow=none;endFill=0;startFill=0;endSize=8;html=1;verticalAlign=bottom;dashed=1;labelBackgroundColor=none;exitX=0.75;exitY=0;exitDx=0;exitDy=0;entryX=0.5;entryY=1;entryDx=0;entryDy=0;" parent="1" source="336" target="310" edge="1">
                    <mxGeometry x="-0.4286" y="-10" width="160" relative="1" as="geometry">
                        <mxPoint x="-2294" y="367" as="sourcePoint"/>
                        <mxPoint x="-2294" y="313" as="targetPoint"/>
                        <mxPoint as="offset"/>
                    </mxGeometry>
                </mxCell>
                <mxCell id="298" value="Person" style="swimlane;fontStyle=1;align=center;verticalAlign=top;childLayout=stackLayout;horizontal=1;startSize=26;horizontalStack=0;resizeParent=1;resizeParentMax=0;resizeLast=0;collapsible=1;marginBottom=0;whiteSpace=wrap;html=1;" parent="1" vertex="1">
                    <mxGeometry x="-1870" y="62" width="160" height="34" as="geometry"/>
                </mxCell>
                <mxCell id="299" value="" style="line;strokeWidth=1;fillColor=none;align=left;verticalAlign=middle;spacingTop=-1;spacingLeft=3;spacingRight=3;rotatable=0;labelPosition=right;points=[];portConstraint=eastwest;strokeColor=inherit;" parent="298" vertex="1">
                    <mxGeometry y="26" width="160" height="8" as="geometry"/>
                </mxCell>
                <mxCell id="300" value="PersonalBelonging" style="swimlane;fontStyle=1;align=center;verticalAlign=top;childLayout=stackLayout;horizontal=1;startSize=26;horizontalStack=0;resizeParent=1;resizeParentMax=0;resizeLast=0;collapsible=1;marginBottom=0;whiteSpace=wrap;html=1;" parent="1" vertex="1">
                    <mxGeometry x="-1710" y="656" width="160" height="34" as="geometry"/>
                </mxCell>
                <mxCell id="301" value="" style="line;strokeWidth=1;fillColor=none;align=left;verticalAlign=middle;spacingTop=-1;spacingLeft=3;spacingRight=3;rotatable=0;labelPosition=right;points=[];portConstraint=eastwest;strokeColor=inherit;" parent="300" vertex="1">
                    <mxGeometry y="26" width="160" height="8" as="geometry"/>
                </mxCell>
                <mxCell id="302" value="Cot&lt;div&gt;&lt;br&gt;&lt;/div&gt;" style="swimlane;fontStyle=1;align=center;verticalAlign=top;childLayout=stackLayout;horizontal=1;startSize=26;horizontalStack=0;resizeParent=1;resizeParentMax=0;resizeLast=0;collapsible=1;marginBottom=0;whiteSpace=wrap;html=1;" parent="1" vertex="1">
                    <mxGeometry x="-1890" y="656" width="160" height="34" as="geometry">
                        <mxRectangle x="40" y="640" width="60" height="40" as="alternateBounds"/>
                    </mxGeometry>
                </mxCell>
                <mxCell id="303" value="" style="line;strokeWidth=1;fillColor=none;align=left;verticalAlign=middle;spacingTop=-1;spacingLeft=3;spacingRight=3;rotatable=0;labelPosition=right;points=[];portConstraint=eastwest;strokeColor=inherit;" parent="302" vertex="1">
                    <mxGeometry y="26" width="160" height="8" as="geometry"/>
                </mxCell>
                <mxCell id="304" value="Water" style="swimlane;fontStyle=1;align=center;verticalAlign=top;childLayout=stackLayout;horizontal=1;startSize=26;horizontalStack=0;resizeParent=1;resizeParentMax=0;resizeLast=0;collapsible=1;marginBottom=0;whiteSpace=wrap;html=1;" parent="1" vertex="1">
                    <mxGeometry x="-2070" y="656" width="160" height="34" as="geometry"/>
                </mxCell>
                <mxCell id="305" value="" style="line;strokeWidth=1;fillColor=none;align=left;verticalAlign=middle;spacingTop=-1;spacingLeft=3;spacingRight=3;rotatable=0;labelPosition=right;points=[];portConstraint=eastwest;strokeColor=inherit;" parent="304" vertex="1">
                    <mxGeometry y="26" width="160" height="8" as="geometry"/>
                </mxCell>
                <mxCell id="306" value="Supply" style="swimlane;fontStyle=1;align=center;verticalAlign=top;childLayout=stackLayout;horizontal=1;startSize=26;horizontalStack=0;resizeParent=1;resizeParentMax=0;resizeLast=0;collapsible=1;marginBottom=0;whiteSpace=wrap;html=1;" parent="1" vertex="1">
                    <mxGeometry x="-1890" y="566" width="160" height="34" as="geometry"/>
                </mxCell>
                <mxCell id="307" value="" style="line;strokeWidth=1;fillColor=none;align=left;verticalAlign=middle;spacingTop=-1;spacingLeft=3;spacingRight=3;rotatable=0;labelPosition=right;points=[];portConstraint=eastwest;strokeColor=inherit;" parent="306" vertex="1">
                    <mxGeometry y="26" width="160" height="8" as="geometry"/>
                </mxCell>
                <mxCell id="308" value="ReliefController" style="swimlane;fontStyle=1;align=center;verticalAlign=top;childLayout=stackLayout;horizontal=1;startSize=26;horizontalStack=0;resizeParent=1;resizeParentMax=0;resizeLast=0;collapsible=1;marginBottom=0;whiteSpace=wrap;html=1;" parent="1" vertex="1">
                    <mxGeometry x="-2260" y="492.5" width="160" height="34" as="geometry"/>
                </mxCell>
                <mxCell id="309" value="" style="line;strokeWidth=1;fillColor=none;align=left;verticalAlign=middle;spacingTop=-1;spacingLeft=3;spacingRight=3;rotatable=0;labelPosition=right;points=[];portConstraint=eastwest;strokeColor=inherit;" parent="308" vertex="1">
                    <mxGeometry y="26" width="160" height="8" as="geometry"/>
                </mxCell>
                <mxCell id="310" value="ErrorLogger" style="swimlane;fontStyle=1;align=center;verticalAlign=top;childLayout=stackLayout;horizontal=1;startSize=26;horizontalStack=0;resizeParent=1;resizeParentMax=0;resizeLast=0;collapsible=1;marginBottom=0;whiteSpace=wrap;html=1;" parent="1" vertex="1">
                    <mxGeometry x="-2374" y="259" width="160" height="34" as="geometry"/>
                </mxCell>
                <mxCell id="311" value="" style="line;strokeWidth=1;fillColor=none;align=left;verticalAlign=middle;spacingTop=-1;spacingLeft=3;spacingRight=3;rotatable=0;labelPosition=right;points=[];portConstraint=eastwest;strokeColor=inherit;" parent="310" vertex="1">
                    <mxGeometry y="26" width="160" height="8" as="geometry"/>
                </mxCell>
                <mxCell id="312" value="0..*" style="text;html=1;align=center;verticalAlign=middle;resizable=0;points=[];autosize=1;strokeColor=none;fillColor=none;" parent="1" vertex="1">
                    <mxGeometry x="-1390" y="632" width="40" height="30" as="geometry"/>
                </mxCell>
                <mxCell id="313" value="1" style="text;html=1;align=center;verticalAlign=middle;resizable=0;points=[];autosize=1;strokeColor=none;fillColor=none;" parent="1" vertex="1">
                    <mxGeometry x="-1490" y="390" width="30" height="30" as="geometry"/>
                </mxCell>
                <mxCell id="314" value="0..*" style="text;html=1;align=center;verticalAlign=middle;resizable=0;points=[];autosize=1;strokeColor=none;fillColor=none;" parent="1" vertex="1">
                    <mxGeometry x="-1490" y="626" width="40" height="30" as="geometry"/>
                </mxCell>
                <mxCell id="315" value="1" style="text;html=1;align=center;verticalAlign=middle;resizable=0;points=[];autosize=1;strokeColor=none;fillColor=none;" parent="1" vertex="1">
                    <mxGeometry x="-1730" y="500" width="30" height="30" as="geometry"/>
                </mxCell>
                <mxCell id="316" value="0..*" style="text;html=1;align=center;verticalAlign=middle;resizable=0;points=[];autosize=1;strokeColor=none;fillColor=none;" parent="1" vertex="1">
                    <mxGeometry x="-1500" y="132" width="40" height="30" as="geometry"/>
                </mxCell>
                <mxCell id="317" value="1" style="text;html=1;align=center;verticalAlign=middle;resizable=0;points=[];autosize=1;strokeColor=none;fillColor=none;" parent="1" vertex="1">
                    <mxGeometry x="-1495" y="324" width="30" height="30" as="geometry"/>
                </mxCell>
                <mxCell id="318" value="0..*" style="text;html=1;align=center;verticalAlign=middle;resizable=0;points=[];autosize=1;strokeColor=none;fillColor=none;" parent="1" vertex="1">
                    <mxGeometry x="-1740" y="444" width="40" height="30" as="geometry"/>
                </mxCell>
                <mxCell id="319" value="1" style="text;html=1;align=center;verticalAlign=middle;resizable=0;points=[];autosize=1;strokeColor=none;fillColor=none;" parent="1" vertex="1">
                    <mxGeometry x="-1585" y="374" width="30" height="30" as="geometry"/>
                </mxCell>
                <mxCell id="320" value="0..*" style="text;html=1;align=center;verticalAlign=middle;resizable=0;points=[];autosize=1;strokeColor=none;fillColor=none;" parent="1" vertex="1">
                    <mxGeometry x="-1730" y="544" width="40" height="30" as="geometry"/>
                </mxCell>
                <mxCell id="321" value="1" style="text;html=1;align=center;verticalAlign=middle;resizable=0;points=[];autosize=1;strokeColor=none;fillColor=none;" parent="1" vertex="1">
                    <mxGeometry x="-1550" y="414" width="30" height="30" as="geometry"/>
                </mxCell>
                <mxCell id="322" value="0..*" style="text;html=1;align=center;verticalAlign=middle;resizable=0;points=[];autosize=1;strokeColor=none;fillColor=none;" parent="1" vertex="1">
                    <mxGeometry x="-1824" y="541" width="40" height="30" as="geometry"/>
                </mxCell>
                <mxCell id="323" value="1" style="text;html=1;align=center;verticalAlign=middle;resizable=0;points=[];autosize=1;strokeColor=none;fillColor=none;" parent="1" vertex="1">
                    <mxGeometry x="-1825" y="500" width="30" height="30" as="geometry"/>
                </mxCell>
                <mxCell id="330" value="1" style="text;html=1;align=center;verticalAlign=middle;resizable=0;points=[];autosize=1;strokeColor=none;fillColor=none;" parent="1" vertex="1">
                    <mxGeometry x="-2324" y="401" width="30" height="30" as="geometry"/>
                </mxCell>
                <mxCell id="331" value="1" style="text;html=1;align=center;verticalAlign=middle;resizable=0;points=[];autosize=1;strokeColor=none;fillColor=none;" parent="1" vertex="1">
                    <mxGeometry x="-2260" y="450.5" width="30" height="30" as="geometry"/>
                </mxCell>
                <mxCell id="332" value="1" style="text;html=1;align=center;verticalAlign=middle;resizable=0;points=[];autosize=1;strokeColor=none;fillColor=none;" parent="1" vertex="1">
                    <mxGeometry x="-2324" y="341" width="30" height="30" as="geometry"/>
                </mxCell>
                <mxCell id="333" value="1" style="text;html=1;align=center;verticalAlign=middle;resizable=0;points=[];autosize=1;strokeColor=none;fillColor=none;" parent="1" vertex="1">
                    <mxGeometry x="-2289" y="291" width="30" height="30" as="geometry"/>
                </mxCell>
                <mxCell id="334" value="1" style="text;html=1;align=center;verticalAlign=middle;resizable=0;points=[];autosize=1;strokeColor=none;fillColor=none;" parent="1" vertex="1">
                    <mxGeometry x="-1960" y="38" width="30" height="30" as="geometry"/>
                </mxCell>
                <mxCell id="335" value="2..*" style="text;html=1;align=center;verticalAlign=middle;resizable=0;points=[];autosize=1;strokeColor=none;fillColor=none;" parent="1" vertex="1">
                    <mxGeometry x="-1910" y="46" width="40" height="30" as="geometry"/>
                </mxCell>
                <mxCell id="336" value="UserInterface" style="swimlane;fontStyle=1;align=center;verticalAlign=top;childLayout=stackLayout;horizontal=1;startSize=26;horizontalStack=0;resizeParent=1;resizeParentMax=0;resizeLast=0;collapsible=1;marginBottom=0;whiteSpace=wrap;html=1;" parent="1" vertex="1">
                    <mxGeometry x="-2414" y="367" width="160" height="34" as="geometry"/>
                </mxCell>
                <mxCell id="337" value="" style="line;strokeWidth=1;fillColor=none;align=left;verticalAlign=middle;spacingTop=-1;spacingLeft=3;spacingRight=3;rotatable=0;labelPosition=right;points=[];portConstraint=eastwest;strokeColor=inherit;" parent="336" vertex="1">
                    <mxGeometry y="26" width="160" height="8" as="geometry"/>
                </mxCell>
                <mxCell id="338" value="TextInputValidator" style="swimlane;fontStyle=1;align=center;verticalAlign=top;childLayout=stackLayout;horizontal=1;startSize=26;horizontalStack=0;resizeParent=1;resizeParentMax=0;resizeLast=0;collapsible=1;marginBottom=0;whiteSpace=wrap;html=1;" parent="1" vertex="1">
                    <mxGeometry x="-2440" y="498.5" width="160" height="34" as="geometry"/>
                </mxCell>
                <mxCell id="339" value="" style="line;strokeWidth=1;fillColor=none;align=left;verticalAlign=middle;spacingTop=-1;spacingLeft=3;spacingRight=3;rotatable=0;labelPosition=right;points=[];portConstraint=eastwest;strokeColor=inherit;" parent="338" vertex="1">
                    <mxGeometry y="26" width="160" height="8" as="geometry"/>
                </mxCell>
                <mxCell id="340" value="1" style="text;html=1;align=center;verticalAlign=middle;resizable=0;points=[];autosize=1;strokeColor=none;fillColor=none;" parent="1" vertex="1">
                    <mxGeometry x="-2395" y="468.5" width="30" height="30" as="geometry"/>
                </mxCell>
                <mxCell id="341" value="1" style="text;html=1;align=center;verticalAlign=middle;resizable=0;points=[];autosize=1;strokeColor=none;fillColor=none;" parent="1" vertex="1">
                    <mxGeometry x="-2399" y="406" width="30" height="30" as="geometry"/>
                </mxCell>
                <mxCell id="342" value="&amp;lt;&amp;lt;uses&amp;gt;&amp;gt;" style="endArrow=open;startArrow=none;endFill=0;startFill=0;endSize=8;html=1;verticalAlign=bottom;dashed=1;labelBackgroundColor=none;exitX=1;exitY=0.25;exitDx=0;exitDy=0;entryX=0;entryY=0.75;entryDx=0;entryDy=0;" parent="1" source="336" target="298" edge="1">
                    <mxGeometry x="-0.4286" y="-10" width="160" relative="1" as="geometry">
                        <mxPoint x="-2080" y="380" as="sourcePoint"/>
                        <mxPoint x="-2080" y="306" as="targetPoint"/>
                        <mxPoint as="offset"/>
                    </mxGeometry>
                </mxCell>
                <mxCell id="343" value="1" style="text;html=1;align=center;verticalAlign=middle;resizable=0;points=[];autosize=1;strokeColor=none;fillColor=none;" parent="1" vertex="1">
                    <mxGeometry x="-2254" y="361" width="30" height="30" as="geometry"/>
                </mxCell>
                <mxCell id="344" value="0..*" style="text;html=1;align=center;verticalAlign=middle;resizable=0;points=[];autosize=1;strokeColor=none;fillColor=none;" parent="1" vertex="1">
                    <mxGeometry x="-1940" y="88" width="40" height="30" as="geometry"/>
                </mxCell>
                <mxCell id="345" value="&amp;lt;&amp;lt;uses&amp;gt;&amp;gt;" style="endArrow=open;startArrow=none;endFill=0;startFill=0;endSize=8;html=1;verticalAlign=bottom;dashed=1;labelBackgroundColor=none;exitX=0;exitY=1;exitDx=0;exitDy=0;entryX=0.672;entryY=0.956;entryDx=0;entryDy=0;entryPerimeter=0;" parent="1" source="336" target="271" edge="1">
                    <mxGeometry x="0.3819" width="160" relative="1" as="geometry">
                        <mxPoint x="-2160" y="414" as="sourcePoint"/>
                        <mxPoint x="-2175" y="566" as="targetPoint"/>
                        <Array as="points">
                            <mxPoint x="-2460" y="403"/>
                            <mxPoint x="-2460" y="766"/>
                            <mxPoint x="-1352" y="766"/>
                        </Array>
                        <mxPoint x="-1" as="offset"/>
                    </mxGeometry>
                </mxCell>
                <mxCell id="346" value="0..*" style="text;html=1;align=center;verticalAlign=middle;resizable=0;points=[];autosize=1;strokeColor=none;fillColor=none;" parent="1" vertex="1">
                    <mxGeometry x="-1345" y="697" width="40" height="30" as="geometry"/>
                </mxCell>
                <mxCell id="347" value="1" style="text;html=1;align=center;verticalAlign=middle;resizable=0;points=[];autosize=1;strokeColor=none;fillColor=none;" parent="1" vertex="1">
                    <mxGeometry x="-2454" y="391" width="30" height="30" as="geometry"/>
                </mxCell>
                <mxCell id="348" value="&amp;lt;&amp;lt;uses&amp;gt;&amp;gt;" style="endArrow=open;startArrow=none;endFill=0;startFill=0;endSize=8;html=1;verticalAlign=bottom;dashed=1;labelBackgroundColor=none;exitX=0;exitY=0;exitDx=0;exitDy=0;entryX=1;entryY=0;entryDx=0;entryDy=0;" parent="1" source="336" target="276" edge="1">
                    <mxGeometry x="-0.1604" y="-15" width="160" relative="1" as="geometry">
                        <mxPoint x="-2040" y="389" as="sourcePoint"/>
                        <mxPoint x="-1870" y="232" as="targetPoint"/>
                        <Array as="points">
                            <mxPoint x="-2410" y="10"/>
                            <mxPoint x="-1330" y="10"/>
                            <mxPoint x="-1335" y="356"/>
                        </Array>
                        <mxPoint as="offset"/>
                    </mxGeometry>
                </mxCell>
                <mxCell id="349" value="0..*" style="text;html=1;align=center;verticalAlign=middle;resizable=0;points=[];autosize=1;strokeColor=none;fillColor=none;" parent="1" vertex="1">
                    <mxGeometry x="-1375" y="326" width="40" height="30" as="geometry"/>
                </mxCell>
                <mxCell id="350" value="1" style="text;html=1;align=center;verticalAlign=middle;resizable=0;points=[];autosize=1;strokeColor=none;fillColor=none;" parent="1" vertex="1">
                    <mxGeometry x="-2424" y="337" width="30" height="30" as="geometry"/>
                </mxCell>
                <mxCell id="351" value="&amp;lt;&amp;lt;uses&amp;gt;&amp;gt;" style="endArrow=open;endSize=12;dashed=1;html=1;entryX=0.5;entryY=1;entryDx=0;entryDy=0;exitX=0.5;exitY=1;exitDx=0;exitDy=0;" parent="1" source="308" target="270" edge="1">
                    <mxGeometry x="-0.359" y="-3" width="160" relative="1" as="geometry">
                        <mxPoint x="-2095" y="570" as="sourcePoint"/>
                        <mxPoint x="-1880" y="576" as="targetPoint"/>
                        <Array as="points">
                            <mxPoint x="-2095" y="620"/>
                            <mxPoint x="-2095" y="736"/>
                            <mxPoint x="-1380" y="736"/>
                        </Array>
                        <mxPoint as="offset"/>
                    </mxGeometry>
                </mxCell>
                <mxCell id="352" value="&amp;lt;&amp;lt;uses&amp;gt;&amp;gt;" style="endArrow=open;endSize=12;dashed=1;html=1;exitX=0;exitY=1;exitDx=0;exitDy=0;" parent="1" source="308" edge="1">
                    <mxGeometry x="0.1532" y="-1" width="160" relative="1" as="geometry">
                        <mxPoint x="-1985" y="538" as="sourcePoint"/>
                        <mxPoint x="-2210" y="626" as="targetPoint"/>
                        <Array as="points"/>
                        <mxPoint as="offset"/>
                    </mxGeometry>
                </mxCell>
                <mxCell id="353" value="1" style="text;html=1;align=center;verticalAlign=middle;resizable=0;points=[];autosize=1;strokeColor=none;fillColor=none;" parent="1" vertex="1">
                    <mxGeometry x="-2244" y="529.5" width="30" height="30" as="geometry"/>
                </mxCell>
                <mxCell id="354" value="0..*" style="text;html=1;align=center;verticalAlign=middle;resizable=0;points=[];autosize=1;strokeColor=none;fillColor=none;" parent="1" vertex="1">
                    <mxGeometry x="-1430" y="706" width="40" height="30" as="geometry"/>
                </mxCell>
                <mxCell id="355" value="&amp;lt;&amp;lt;uses&amp;gt;&amp;gt;" style="endArrow=open;startArrow=none;endFill=0;startFill=0;endSize=8;html=1;verticalAlign=bottom;dashed=1;labelBackgroundColor=none;exitX=1.027;exitY=-0.135;exitDx=0;exitDy=0;exitPerimeter=0;entryX=0.5;entryY=0;entryDx=0;entryDy=0;" parent="1" source="341" target="338" edge="1">
                    <mxGeometry width="160" relative="1" as="geometry">
                        <mxPoint x="-2253" y="414.5" as="sourcePoint"/>
                        <mxPoint x="-2250" y="502.5" as="targetPoint"/>
                    </mxGeometry>
                </mxCell>
                <mxCell id="356" value="DbConnector" style="swimlane;fontStyle=1;align=center;verticalAlign=top;childLayout=stackLayout;horizontal=1;startSize=26;horizontalStack=0;resizeParent=1;resizeParentMax=0;resizeLast=0;collapsible=1;marginBottom=0;whiteSpace=wrap;html=1;" parent="1" vertex="1">
                    <mxGeometry x="-2370" y="811" width="160" height="34" as="geometry"/>
                </mxCell>
                <mxCell id="357" value="" style="line;strokeWidth=1;fillColor=none;align=left;verticalAlign=middle;spacingTop=-1;spacingLeft=3;spacingRight=3;rotatable=0;labelPosition=right;points=[];portConstraint=eastwest;strokeColor=inherit;" parent="356" vertex="1">
                    <mxGeometry y="26" width="160" height="8" as="geometry"/>
                </mxCell>
                <mxCell id="358" value="1" style="text;html=1;align=center;verticalAlign=middle;resizable=0;points=[];autosize=1;strokeColor=none;fillColor=none;" parent="1" vertex="1">
                    <mxGeometry x="-2220" y="584" width="30" height="30" as="geometry"/>
                </mxCell>
                <mxCell id="359" value="1" style="text;html=1;align=center;verticalAlign=middle;resizable=0;points=[];autosize=1;strokeColor=none;fillColor=none;" parent="1" vertex="1">
                    <mxGeometry x="-2285" y="532.5" width="30" height="30" as="geometry"/>
                </mxCell>
                <mxCell id="360" value="&lt;p style=&quot;margin:0px;margin-top:4px;text-align:center;&quot;&gt;&lt;i&gt;&amp;lt;&amp;lt;Interface&amp;gt;&amp;gt;&lt;/i&gt;&lt;br&gt;&lt;b&gt;DatabaseQueryHandler&lt;/b&gt;&lt;/p&gt;&lt;p style=&quot;margin:0px;margin-left:4px;&quot;&gt;&lt;br&gt;&lt;/p&gt;&lt;hr size=&quot;1&quot; style=&quot;border-style:solid;&quot;&gt;&lt;p style=&quot;margin:0px;margin-left:4px;&quot;&gt;+ String returnQuery(String query, String[] data)&lt;/p&gt;&lt;p style=&quot;margin:0px;margin-left:4px;&quot;&gt;+ void deadEndQuery(String Query, String[] data)&lt;/p&gt;" style="verticalAlign=top;align=left;overflow=fill;html=1;whiteSpace=wrap;" parent="1" vertex="1">
                    <mxGeometry x="-2292.5" y="626" width="175" height="120" as="geometry"/>
                </mxCell>
                <mxCell id="361" value="" style="endArrow=block;dashed=1;endFill=0;endSize=12;html=1;exitX=0.5;exitY=0;exitDx=0;exitDy=0;entryX=0.25;entryY=1;entryDx=0;entryDy=0;" parent="1" source="356" target="360" edge="1">
                    <mxGeometry width="160" relative="1" as="geometry">
                        <mxPoint x="-2155" y="626" as="sourcePoint"/>
                        <mxPoint x="-1995" y="626" as="targetPoint"/>
                    </mxGeometry>
                </mxCell>
                <mxCell id="362" value="MockDatabase" style="swimlane;fontStyle=1;align=center;verticalAlign=top;childLayout=stackLayout;horizontal=1;startSize=26;horizontalStack=0;resizeParent=1;resizeParentMax=0;resizeLast=0;collapsible=1;marginBottom=0;whiteSpace=wrap;html=1;" parent="1" vertex="1">
                    <mxGeometry x="-2110" y="811" width="160" height="34" as="geometry"/>
                </mxCell>
                <mxCell id="363" value="" style="line;strokeWidth=1;fillColor=none;align=left;verticalAlign=middle;spacingTop=-1;spacingLeft=3;spacingRight=3;rotatable=0;labelPosition=right;points=[];portConstraint=eastwest;strokeColor=inherit;" parent="362" vertex="1">
                    <mxGeometry y="26" width="160" height="8" as="geometry"/>
                </mxCell>
                <mxCell id="364" value="" style="endArrow=block;dashed=1;endFill=0;endSize=12;html=1;exitX=0.25;exitY=0;exitDx=0;exitDy=0;entryX=0.5;entryY=1;entryDx=0;entryDy=0;" parent="1" source="362" target="360" edge="1">
                    <mxGeometry width="160" relative="1" as="geometry">
                        <mxPoint x="-2155" y="626" as="sourcePoint"/>
                        <mxPoint x="-1995" y="626" as="targetPoint"/>
                    </mxGeometry>
                </mxCell>
                <mxCell id="365" value="Database" style="swimlane;fontStyle=1;align=center;verticalAlign=top;childLayout=stackLayout;horizontal=1;startSize=26;horizontalStack=0;resizeParent=1;resizeParentMax=0;resizeLast=0;collapsible=1;marginBottom=0;whiteSpace=wrap;html=1;" parent="1" vertex="1">
                    <mxGeometry x="-2195" y="866" width="160" height="34" as="geometry"/>
                </mxCell>
                <mxCell id="366" value="" style="line;strokeWidth=1;fillColor=none;align=left;verticalAlign=middle;spacingTop=-1;spacingLeft=3;spacingRight=3;rotatable=0;labelPosition=right;points=[];portConstraint=eastwest;strokeColor=inherit;" parent="365" vertex="1">
                    <mxGeometry y="26" width="160" height="8" as="geometry"/>
                </mxCell>
                <mxCell id="367" value="&amp;lt;&amp;lt;uses&amp;gt;&amp;gt;" style="endArrow=open;startArrow=none;endFill=0;startFill=0;endSize=8;html=1;verticalAlign=bottom;dashed=1;labelBackgroundColor=none;exitX=1;exitY=0.5;exitDx=0;exitDy=0;entryX=0.5;entryY=0;entryDx=0;entryDy=0;" parent="1" source="356" target="365" edge="1">
                    <mxGeometry width="160" relative="1" as="geometry">
                        <mxPoint x="-2108" y="416" as="sourcePoint"/>
                        <mxPoint x="-2105" y="504" as="targetPoint"/>
                    </mxGeometry>
                </mxCell>
                <mxCell id="368" value="&lt;p style=&quot;margin:0px;margin-top:4px;text-align:center;&quot;&gt;&lt;i&gt;&amp;lt;&amp;lt;Interface&amp;gt;&amp;gt;&lt;/i&gt;&lt;br&gt;&lt;b&gt;DatabaseInterfaceable&lt;/b&gt;&lt;/p&gt;&lt;hr size=&quot;1&quot; style=&quot;border-style:solid;&quot;&gt;&lt;p style=&quot;margin:0px;margin-left:4px;&quot;&gt;+ field1: Type&lt;br&gt;+ field2: Type&lt;/p&gt;&lt;hr size=&quot;1&quot; style=&quot;border-style:solid;&quot;&gt;&lt;p style=&quot;margin:0px;margin-left:4px;&quot;&gt;+ method1(Type): Type&lt;br&gt;+ method2(Type, Type): Type&lt;/p&gt;" style="verticalAlign=top;align=left;overflow=fill;html=1;whiteSpace=wrap;" parent="1" vertex="1">
                    <mxGeometry x="-1985" y="186" width="190" height="140" as="geometry"/>
                </mxCell>
                <mxCell id="369" value="&lt;p style=&quot;margin:0px;margin-top:4px;text-align:center;&quot;&gt;&lt;i&gt;&amp;lt;&amp;lt;Interface&amp;gt;&amp;gt;&lt;/i&gt;&lt;br&gt;&lt;b&gt;SupplyHolder&lt;/b&gt;&lt;/p&gt;&lt;hr size=&quot;1&quot; style=&quot;border-style:solid;&quot;&gt;&lt;p style=&quot;margin:0px;margin-left:4px;&quot;&gt;+ void transferSupply(Supply supply)&lt;br&gt;+ void decrementSupply(Supply supply)&lt;/p&gt;&lt;p style=&quot;margin:0px;margin-left:4px;&quot;&gt;+ boolean containsSupply(Supply supply)&lt;/p&gt;" style="verticalAlign=top;align=left;overflow=fill;html=1;whiteSpace=wrap;" parent="1" vertex="1">
                    <mxGeometry x="-2360" y="130" width="230" height="100" as="geometry"/>
                </mxCell>
                <mxCell id="370" value="" style="endArrow=diamondThin;endFill=1;endSize=24;html=1;exitX=0;exitY=1;exitDx=0;exitDy=0;entryX=1;entryY=0;entryDx=0;entryDy=0;" parent="1" source="368" target="308" edge="1">
                    <mxGeometry width="160" relative="1" as="geometry">
                        <mxPoint x="-1900" y="500" as="sourcePoint"/>
                        <mxPoint x="-1740" y="500" as="targetPoint"/>
                    </mxGeometry>
                </mxCell>
                <mxCell id="371" value="" style="endArrow=block;dashed=1;endFill=0;endSize=12;html=1;exitX=0;exitY=1;exitDx=0;exitDy=0;entryX=1;entryY=0;entryDx=0;entryDy=0;" parent="1" source="274" target="368" edge="1">
                    <mxGeometry width="160" relative="1" as="geometry">
                        <mxPoint x="-1700" y="212.32999999999998" as="sourcePoint"/>
                        <mxPoint x="-1540" y="212.32999999999998" as="targetPoint"/>
                    </mxGeometry>
                </mxCell>
                <mxCell id="372" value="" style="endArrow=block;dashed=1;endFill=0;endSize=12;html=1;exitX=0;exitY=0;exitDx=0;exitDy=0;entryX=1;entryY=0.25;entryDx=0;entryDy=0;" parent="1" source="276" target="368" edge="1">
                    <mxGeometry width="160" relative="1" as="geometry">
                        <mxPoint x="-1515" y="149" as="sourcePoint"/>
                        <mxPoint x="-1795" y="314" as="targetPoint"/>
                    </mxGeometry>
                </mxCell>
                <mxCell id="373" value="" style="endArrow=block;dashed=1;endFill=0;endSize=12;html=1;exitX=0.25;exitY=1;exitDx=0;exitDy=0;entryX=0.75;entryY=0;entryDx=0;entryDy=0;" parent="1" source="298" target="368" edge="1">
                    <mxGeometry width="160" relative="1" as="geometry">
                        <mxPoint x="-1530" y="366" as="sourcePoint"/>
                        <mxPoint x="-1810" y="306" as="targetPoint"/>
                    </mxGeometry>
                </mxCell>
                <mxCell id="374" value="" style="endArrow=block;dashed=1;endFill=0;endSize=12;html=1;exitX=0;exitY=0;exitDx=0;exitDy=0;entryX=1;entryY=1;entryDx=0;entryDy=0;" parent="1" source="306" target="369" edge="1">
                    <mxGeometry width="160" relative="1" as="geometry">
                        <mxPoint x="-1820" y="106" as="sourcePoint"/>
                        <mxPoint x="-1832" y="233" as="targetPoint"/>
                    </mxGeometry>
                </mxCell>
                <mxCell id="375" value="" style="endArrow=block;dashed=1;endFill=0;endSize=12;html=1;exitX=0;exitY=0.5;exitDx=0;exitDy=0;entryX=1;entryY=0.5;entryDx=0;entryDy=0;" parent="1" source="276" target="369" edge="1">
                    <mxGeometry width="160" relative="1" as="geometry">
                        <mxPoint x="-1530" y="366" as="sourcePoint"/>
                        <mxPoint x="-1785" y="268" as="targetPoint"/>
                        <Array as="points">
                            <mxPoint x="-1960" y="410"/>
                        </Array>
                    </mxGeometry>
                </mxCell>
                <mxCell id="376" value="0..*" style="text;html=1;align=center;verticalAlign=middle;resizable=0;points=[];autosize=1;strokeColor=none;fillColor=none;" parent="1" vertex="1">
                    <mxGeometry x="-2090" y="485" width="40" height="30" as="geometry"/>
                </mxCell>
                <mxCell id="377" value="1" style="text;html=1;align=center;verticalAlign=middle;resizable=0;points=[];autosize=1;strokeColor=none;fillColor=none;" parent="1" vertex="1">
                    <mxGeometry x="-1992" y="325" width="30" height="30" as="geometry"/>
                </mxCell>
                <mxCell id="379" value="&lt;p style=&quot;margin:0px;margin-top:4px;text-align:center;&quot;&gt;&lt;i&gt;&amp;lt;&amp;lt;Interface&amp;gt;&amp;gt;&lt;/i&gt;&lt;br&gt;&lt;b&gt;DatabaseInterfaceable&lt;/b&gt;&lt;/p&gt;&lt;hr size=&quot;1&quot; style=&quot;border-style:solid;&quot;&gt;&lt;p style=&quot;margin:0px;margin-left:4px;&quot;&gt;&lt;/p&gt;&lt;p style=&quot;margin:0px;margin-left:4px;&quot;&gt;+ void addEntry()&lt;/p&gt;&lt;p style=&quot;margin:0px;margin-left:4px;&quot;&gt;+ &lt;u&gt;ResultSet getEntries(String tableName)&lt;/u&gt;&lt;/p&gt;&lt;p style=&quot;margin:0px;margin-left:4px;&quot;&gt;+ void updateEntry()&lt;/p&gt;&lt;p style=&quot;margin:0px;margin-left:4px;&quot;&gt;+ String getId()&lt;/p&gt;&lt;p style=&quot;margin:0px;margin-left:4px;&quot;&gt;+ void setId()&lt;/p&gt;" style="verticalAlign=top;align=left;overflow=fill;html=1;whiteSpace=wrap;" parent="1" vertex="1">
                    <mxGeometry x="-220" y="600" width="205" height="130" as="geometry"/>
                </mxCell>
                <mxCell id="380" value="0..*" style="text;html=1;align=center;verticalAlign=middle;resizable=0;points=[];autosize=1;strokeColor=none;fillColor=none;" parent="1" vertex="1">
                    <mxGeometry x="-140" y="574" width="40" height="30" as="geometry"/>
                </mxCell>
                <mxCell id="381" value="&amp;lt;&amp;lt;uses&amp;gt;&amp;gt;" style="endArrow=open;endSize=12;dashed=1;html=1;exitX=0.5;exitY=1;exitDx=0;exitDy=0;entryX=0.5;entryY=0;entryDx=0;entryDy=0;" parent="1" source="379" target="252" edge="1">
                    <mxGeometry x="0.1576" y="-1" width="160" relative="1" as="geometry">
                        <mxPoint y="512" as="sourcePoint"/>
                        <mxPoint x="-95" y="610" as="targetPoint"/>
                        <Array as="points"/>
                        <mxPoint as="offset"/>
                    </mxGeometry>
                </mxCell>
                <mxCell id="382" value="1" style="text;html=1;align=center;verticalAlign=middle;resizable=0;points=[];autosize=1;strokeColor=none;fillColor=none;" parent="1" vertex="1">
                    <mxGeometry x="14.25" y="785" width="30" height="30" as="geometry"/>
                </mxCell>
                <mxCell id="383" value="0..*" style="text;html=1;align=center;verticalAlign=middle;resizable=0;points=[];autosize=1;strokeColor=none;fillColor=none;" parent="1" vertex="1">
                    <mxGeometry x="-148" y="723" width="40" height="30" as="geometry"/>
                </mxCell>
                <mxCell id="385" value="" style="endArrow=block;dashed=1;endFill=0;endSize=12;html=1;entryX=0;entryY=0;entryDx=0;entryDy=0;exitX=0.5;exitY=0;exitDx=0;exitDy=0;" parent="1" source="136" target="379" edge="1">
                    <mxGeometry width="160" relative="1" as="geometry">
                        <mxPoint x="-205" y="70" as="sourcePoint"/>
                        <mxPoint x="3" y="830" as="targetPoint"/>
                        <Array as="points">
                            <mxPoint x="305" y="90"/>
                            <mxPoint x="-220" y="90"/>
                        </Array>
                    </mxGeometry>
                </mxCell>
                <mxCell id="387" value="" style="endArrow=block;dashed=1;endFill=0;endSize=12;html=1;exitX=0.5;exitY=0;exitDx=0;exitDy=0;" parent="1" source="24" edge="1">
                    <mxGeometry width="160" relative="1" as="geometry">
                        <mxPoint x="460" y="76.45999999999998" as="sourcePoint"/>
                        <mxPoint x="70" y="90" as="targetPoint"/>
                        <Array as="points">
                            <mxPoint x="645" y="90"/>
                        </Array>
                    </mxGeometry>
                </mxCell>
                <mxCell id="388" value="" style="endArrow=block;dashed=1;endFill=0;endSize=12;html=1;exitX=0.75;exitY=0;exitDx=0;exitDy=0;" parent="1" source="32" edge="1">
                    <mxGeometry width="160" relative="1" as="geometry">
                        <mxPoint x="460" y="76.45999999999998" as="sourcePoint"/>
                        <mxPoint x="390" y="90" as="targetPoint"/>
                        <Array as="points">
                            <mxPoint x="840" y="140"/>
                            <mxPoint x="840" y="90"/>
                        </Array>
                    </mxGeometry>
                </mxCell>
                <mxCell id="389" value="" style="endArrow=block;dashed=1;endFill=0;endSize=12;html=1;exitX=0;exitY=0.5;exitDx=0;exitDy=0;entryX=1;entryY=0;entryDx=0;entryDy=0;" parent="1" source="153" target="379" edge="1">
                    <mxGeometry width="160" relative="1" as="geometry">
                        <mxPoint x="460" y="76.45999999999998" as="sourcePoint"/>
                        <mxPoint x="620" y="76.45999999999998" as="targetPoint"/>
                    </mxGeometry>
                </mxCell>
                <mxCell id="390" value="" style="endArrow=block;dashed=1;endFill=0;endSize=12;html=1;exitX=0.88;exitY=-0.124;exitDx=0;exitDy=0;exitPerimeter=0;" parent="1" source="16" edge="1">
                    <mxGeometry width="160" relative="1" as="geometry">
                        <mxPoint x="460" y="76.45999999999998" as="sourcePoint"/>
                        <mxPoint x="840" y="100" as="targetPoint"/>
                        <Array as="points">
                            <mxPoint x="840" y="520"/>
                        </Array>
                    </mxGeometry>
                </mxCell>
                <mxCell id="391" value="&amp;lt;&amp;lt;throws&amp;gt;&amp;gt;" style="endArrow=open;endSize=12;dashed=1;html=1;exitX=0.993;exitY=0.401;exitDx=0;exitDy=0;entryX=0.75;entryY=0;entryDx=0;entryDy=0;exitPerimeter=0;" parent="1" source="107" target="109" edge="1">
                    <mxGeometry x="-0.0061" width="160" relative="1" as="geometry">
                        <mxPoint x="1161" y="691" as="sourcePoint"/>
                        <mxPoint x="1335" y="766" as="targetPoint"/>
                        <mxPoint as="offset"/>
                    </mxGeometry>
                </mxCell>
                <mxCell id="392" value="SQLException" style="swimlane;fontStyle=1;align=center;verticalAlign=top;childLayout=stackLayout;horizontal=1;startSize=26;horizontalStack=0;resizeParent=1;resizeParentMax=0;resizeLast=0;collapsible=1;marginBottom=0;whiteSpace=wrap;html=1;" parent="1" vertex="1">
                    <mxGeometry x="-320" y="866" width="160" height="34" as="geometry"/>
                </mxCell>
                <mxCell id="394" value="" style="line;strokeWidth=1;fillColor=none;align=left;verticalAlign=middle;spacingTop=-1;spacingLeft=3;spacingRight=3;rotatable=0;labelPosition=right;points=[];portConstraint=eastwest;strokeColor=inherit;" parent="392" vertex="1">
                    <mxGeometry y="26" width="160" height="8" as="geometry"/>
                </mxCell>
                <mxCell id="396" value="&amp;lt;&amp;lt;throws&amp;gt;&amp;gt;" style="endArrow=open;endSize=12;dashed=1;html=1;exitX=0;exitY=0.75;exitDx=0;exitDy=0;entryX=0.5;entryY=0;entryDx=0;entryDy=0;" parent="1" source="379" target="392" edge="1">
                    <mxGeometry x="-0.0061" width="160" relative="1" as="geometry">
                        <mxPoint x="-368" y="756" as="sourcePoint"/>
                        <mxPoint x="-145" y="855" as="targetPoint"/>
                        <mxPoint as="offset"/>
                        <Array as="points">
                            <mxPoint x="-230" y="790"/>
                        </Array>
                    </mxGeometry>
                </mxCell>
                <mxCell id="397" value="&amp;lt;&amp;lt;throws&amp;gt;&amp;gt;" style="endArrow=open;endSize=12;dashed=1;html=1;exitX=0;exitY=0.5;exitDx=0;exitDy=0;entryX=0.25;entryY=0;entryDx=0;entryDy=0;" parent="1" source="379" target="392" edge="1">
                    <mxGeometry x="0.4573" y="-2" width="160" relative="1" as="geometry">
                        <mxPoint x="-210" y="740" as="sourcePoint"/>
                        <mxPoint x="-190" y="890" as="targetPoint"/>
                        <mxPoint as="offset"/>
                        <Array as="points">
                            <mxPoint x="-280" y="770"/>
                        </Array>
                    </mxGeometry>
                </mxCell>
                <mxCell id="398" value="&amp;lt;&amp;lt;throws&amp;gt;&amp;gt;" style="endArrow=open;endSize=12;dashed=1;html=1;exitX=0;exitY=0.392;exitDx=0;exitDy=0;entryX=0;entryY=0;entryDx=0;entryDy=0;exitPerimeter=0;" parent="1" source="379" target="392" edge="1">
                    <mxGeometry x="-0.0061" width="160" relative="1" as="geometry">
                        <mxPoint x="-211" y="721" as="sourcePoint"/>
                        <mxPoint x="-230" y="890" as="targetPoint"/>
                        <mxPoint as="offset"/>
                        <Array as="points">
                            <mxPoint x="-320" y="730"/>
                        </Array>
                    </mxGeometry>
                </mxCell>
                <mxCell id="399" value="SQLException" style="swimlane;fontStyle=1;align=center;verticalAlign=top;childLayout=stackLayout;horizontal=1;startSize=26;horizontalStack=0;resizeParent=1;resizeParentMax=0;resizeLast=0;collapsible=1;marginBottom=0;whiteSpace=wrap;html=1;" parent="1" vertex="1">
                    <mxGeometry x="1280" y="1410" width="160" height="34" as="geometry"/>
                </mxCell>
                <mxCell id="400" value="" style="line;strokeWidth=1;fillColor=none;align=left;verticalAlign=middle;spacingTop=-1;spacingLeft=3;spacingRight=3;rotatable=0;labelPosition=right;points=[];portConstraint=eastwest;strokeColor=inherit;" parent="399" vertex="1">
                    <mxGeometry y="26" width="160" height="8" as="geometry"/>
                </mxCell>
                <mxCell id="401" value="&amp;lt;&amp;lt;throws&amp;gt;&amp;gt;" style="endArrow=open;endSize=12;dashed=1;html=1;exitX=0.997;exitY=0.66;exitDx=0;exitDy=0;exitPerimeter=0;entryX=0;entryY=0;entryDx=0;entryDy=0;" parent="1" source="260" target="399" edge="1">
                    <mxGeometry x="-0.0061" width="160" relative="1" as="geometry">
                        <mxPoint x="1288" y="1194" as="sourcePoint"/>
                        <mxPoint x="1395" y="976" as="targetPoint"/>
                        <Array as="points"/>
                        <mxPoint as="offset"/>
                    </mxGeometry>
                </mxCell>
                <mxCell id="402" value="&amp;lt;&amp;lt;throws&amp;gt;&amp;gt;" style="endArrow=open;endSize=12;dashed=1;html=1;exitX=1;exitY=0.75;exitDx=0;exitDy=0;entryX=0;entryY=0.5;entryDx=0;entryDy=0;" parent="1" source="260" target="399" edge="1">
                    <mxGeometry x="-0.0061" width="160" relative="1" as="geometry">
                        <mxPoint x="1149" y="1416" as="sourcePoint"/>
                        <mxPoint x="1275" y="1420" as="targetPoint"/>
                        <Array as="points"/>
                        <mxPoint as="offset"/>
                    </mxGeometry>
                </mxCell>
                <mxCell id="403" value="&amp;lt;&amp;lt;throws&amp;gt;&amp;gt;" style="endArrow=open;endSize=12;dashed=1;html=1;exitX=1.001;exitY=0.869;exitDx=0;exitDy=0;exitPerimeter=0;entryX=0.01;entryY=0.708;entryDx=0;entryDy=0;entryPerimeter=0;" parent="1" source="260" target="400" edge="1">
                    <mxGeometry x="-0.0061" width="160" relative="1" as="geometry">
                        <mxPoint x="1150" y="1430" as="sourcePoint"/>
                        <mxPoint x="1285" y="1430" as="targetPoint"/>
                        <Array as="points"/>
                        <mxPoint as="offset"/>
                    </mxGeometry>
                </mxCell>
                <mxCell id="404" value="&amp;lt;&amp;lt;throws&amp;gt;&amp;gt;" style="endArrow=open;endSize=12;dashed=1;html=1;exitX=-0.004;exitY=0.631;exitDx=0;exitDy=0;entryX=1;entryY=0;entryDx=0;entryDy=0;exitPerimeter=0;" parent="1" source="252" target="392" edge="1">
                    <mxGeometry x="-0.0061" width="160" relative="1" as="geometry">
                        <mxPoint x="-210" y="708" as="sourcePoint"/>
                        <mxPoint x="-230" y="876" as="targetPoint"/>
                        <mxPoint as="offset"/>
                        <Array as="points"/>
                    </mxGeometry>
                </mxCell>
                <mxCell id="405" value="&amp;lt;&amp;lt;throws&amp;gt;&amp;gt;" style="endArrow=open;endSize=12;dashed=1;html=1;exitX=-0.01;exitY=0.818;exitDx=0;exitDy=0;entryX=1;entryY=1;entryDx=0;entryDy=0;exitPerimeter=0;" parent="1" source="252" target="392" edge="1">
                    <mxGeometry x="-0.0061" width="160" relative="1" as="geometry">
                        <mxPoint x="-64" y="920" as="sourcePoint"/>
                        <mxPoint x="-150" y="876" as="targetPoint"/>
                        <mxPoint as="offset"/>
                        <Array as="points"/>
                    </mxGeometry>
                </mxCell>
                <mxCell id="409" value="" style="endArrow=diamondThin;endFill=1;endSize=24;html=1;exitX=0.777;exitY=0.899;exitDx=0;exitDy=0;entryX=0.25;entryY=0;entryDx=0;entryDy=0;exitPerimeter=0;" edge="1" parent="1" source="8" target="157">
                    <mxGeometry width="160" relative="1" as="geometry">
                        <mxPoint x="259" y="211" as="sourcePoint"/>
                        <mxPoint x="80" y="478" as="targetPoint"/>
                        <Array as="points">
                            <mxPoint x="130" y="300"/>
                        </Array>
                    </mxGeometry>
                </mxCell>
                <mxCell id="410" value="0..*" style="text;html=1;align=center;verticalAlign=middle;resizable=0;points=[];autosize=1;strokeColor=none;fillColor=none;" vertex="1" parent="1">
                    <mxGeometry x="75" y="184" width="40" height="30" as="geometry"/>
                </mxCell>
                <mxCell id="411" value="1" style="text;html=1;align=center;verticalAlign=middle;resizable=0;points=[];autosize=1;strokeColor=none;fillColor=none;" vertex="1" parent="1">
                    <mxGeometry x="22" y="418" width="30" height="30" as="geometry"/>
                </mxCell>
                <mxCell id="412" value="&amp;lt;&amp;lt;throws&amp;gt;&amp;gt;" style="endArrow=open;endSize=12;dashed=1;html=1;exitX=1.005;exitY=0.585;exitDx=0;exitDy=0;entryX=0;entryY=0.5;entryDx=0;entryDy=0;exitPerimeter=0;" edge="1" parent="1" source="99" target="101">
                    <mxGeometry width="160" relative="1" as="geometry">
                        <mxPoint x="1140" y="302" as="sourcePoint"/>
                        <mxPoint x="1250" y="262" as="targetPoint"/>
                    </mxGeometry>
                </mxCell>
                <mxCell id="413" value="&amp;lt;&amp;lt;throws&amp;gt;&amp;gt;" style="endArrow=open;endSize=12;dashed=1;html=1;exitX=-0.004;exitY=0.283;exitDx=0;exitDy=0;exitPerimeter=0;entryX=0;entryY=1;entryDx=0;entryDy=0;" edge="1" parent="1" source="131" target="232">
                    <mxGeometry width="160" relative="1" as="geometry">
                        <mxPoint x="-643" y="535" as="sourcePoint"/>
                        <mxPoint x="-788" y="436" as="targetPoint"/>
                        <Array as="points">
                            <mxPoint x="-1060" y="550"/>
                        </Array>
                    </mxGeometry>
                </mxCell>
                <mxCell id="415" value="&amp;lt;&amp;lt;throws&amp;gt;&amp;gt;" style="endArrow=open;endSize=12;dashed=1;html=1;entryX=0.75;entryY=1;entryDx=0;entryDy=0;exitX=0.006;exitY=0.715;exitDx=0;exitDy=0;exitPerimeter=0;" edge="1" parent="1" source="115" target="101">
                    <mxGeometry width="160" relative="1" as="geometry">
                        <mxPoint x="1200" y="443" as="sourcePoint"/>
                        <mxPoint x="1298" y="269" as="targetPoint"/>
                    </mxGeometry>
                </mxCell>
            </root>
        </mxGraphModel>
    </diagram>
</mxfile>